<?xml version="1.0" encoding="utf-8"?>
<!-- Generator: Adobe Illustrator 24.3.0, SVG Export Plug-In . SVG Version: 6.00 Build 0)  -->
<svg version="1.1" id="Layer_1" xmlns="http://www.w3.org/2000/svg" xmlns:xlink="http://www.w3.org/1999/xlink" x="0px" y="0px"
	 viewBox="0 0 1280 1024" style="enable-background:new 0 0 1280 1024;" xml:space="preserve">
<style type="text/css">
	.st0{fill:url(#SVGID_1_);}
	.st1{fill:url(#SVGID_2_);}
	.st2{fill:url(#SVGID_3_);}
	.st3{fill:none;}
	.st4{fill:#DFDFDF;}
	.st5{fill:url(#SVGID_4_);}
	.st6{fill:url(#SVGID_5_);}
	.st7{fill:url(#SVGID_6_);}
	.st8{fill:url(#SVGID_7_);}
	.st9{fill:url(#SVGID_8_);}
	.st10{filter:url(#Adobe_OpacityMaskFilter);}
	.st11{filter:url(#Adobe_OpacityMaskFilter_1_);}
	.st12{mask:url(#SVGID_9_);fill:url(#SVGID_10_);}
	.st13{opacity:0.2;fill:url(#SVGID_11_);}
	.st14{fill:#000004;}
	.st15{fill:url(#SVGID_12_);}
	.st16{fill:url(#SVGID_13_);}
	.st17{fill:url(#SVGID_14_);}
	.st18{fill:url(#SVGID_15_);}
	.st19{fill:url(#SVGID_16_);}
	.st20{fill:url(#SVGID_17_);}
	.st21{fill:url(#SVGID_18_);}
	.st22{fill:url(#SVGID_19_);}
	.st23{fill:url(#SVGID_20_);}
	.st24{fill:url(#SVGID_21_);}
	.st25{filter:url(#Adobe_OpacityMaskFilter_2_);}
	.st26{filter:url(#Adobe_OpacityMaskFilter_3_);}
	.st27{mask:url(#SVGID_27_);fill:url(#SVGID_28_);}
	.st28{opacity:0.2;fill:url(#SVGID_29_);}
</style>
<g>
	<linearGradient id="SVGID_1_" gradientUnits="userSpaceOnUse" x1="556.4807" y1="703.2886" x2="1181.4807" y2="78.2886">
		<stop  offset="0" style="stop-color:#5540FF"/>
		<stop  offset="0.6618" style="stop-color:#6F82FF"/>
		<stop  offset="1" style="stop-color:#7A9FFF"/>
	</linearGradient>
	<rect x="494" y="140.8" class="st0" width="750" height="500"/>
	<g>
		<linearGradient id="SVGID_2_" gradientUnits="userSpaceOnUse" x1="1068.46" y1="646.1596" x2="1309.7131" y2="404.9065">
			<stop  offset="0" style="stop-color:#5540FF"/>
			<stop  offset="0.6618" style="stop-color:#6F82FF"/>
			<stop  offset="1" style="stop-color:#7A9FFF"/>
		</linearGradient>
		<path class="st1" d="M1244,339.2c-15.2,0-30.4,3.6-43.9,10.8c-21.6,11.5-38.3,31.9-45.3,55.3c-8.8,29.3-3,62.5-17,89.7
			c-13,25.4-40.4,40-57.9,62.6c-13.2,17-20.4,38.5-20.1,60c0.1,7.8,1.2,15.7,3.3,23.2H1244V339.2z"/>
	</g>
	<g>
		<linearGradient id="SVGID_3_" gradientUnits="userSpaceOnUse" x1="493.9807" y1="233.9129" x2="722.071" y2="233.9129">
			<stop  offset="0" style="stop-color:#5540FF"/>
			<stop  offset="0.1732" style="stop-color:#5848FF;stop-opacity:0.948"/>
			<stop  offset="0.4466" style="stop-color:#615FFF;stop-opacity:0.866"/>
			<stop  offset="0.7839" style="stop-color:#6F84FF;stop-opacity:0.7648"/>
			<stop  offset="1" style="stop-color:#7A9FFF;stop-opacity:0.7"/>
		</linearGradient>
		<path class="st2" d="M494,327c4.4-3.2,8.7-6.5,13-9.9c16.3-13,32.3-26.9,51.4-35.1c31.5-13.6,68.3-10.6,99.8-24.3
			c38.6-16.8,70.9-68.5,62.6-116.9H494V327z"/>
	</g>
</g>
<g>
	
		<image style="overflow:visible;opacity:0.75;" width="679" height="438" xlink:href="1D383906.png"  transform="matrix(1 0 0 1 536 172)">
	</image>
	<g>
		
			<image style="overflow:visible;opacity:0.75;" width="648" height="408" xlink:href="1D38390A.png"  transform="matrix(1 0 0 1 559 195)">
		</image>
		<g>
			
				<image style="overflow:visible;" width="1216" height="631" xlink:href="C:\Users\WP\Downloads\Web capture_15-5-2022_145320_.jpeg"  transform="matrix(0.5222 0 0 0.6281 558.4607 193.9485)">
			</image>
		</g>
	</g>
</g>
<g>
	<g>
		<g>
			<g>
				<g>
					<g>
						<g>
							<path class="st3" d="M59.8,681.6c0.6,0,1.2,0.1,1.8,0.1h393c0.6,0,1.2,0,1.8-0.1c0.2,0,0.3,0,0.5,0c1-0.1,2-0.3,3-0.5
								c0.2,0,0.4-0.1,0.6-0.1c0.1,0,0.3-0.1,0.4-0.1c1.8-0.5,3.4-1.1,5-2c0.2-0.1,0.3-0.2,0.5-0.3c0.3-0.2,0.7-0.4,1-0.6
								c0.2-0.1,0.3-0.2,0.5-0.3c0.2-0.1,0.3-0.2,0.5-0.3c0.4-0.3,0.9-0.6,1.3-0.9c0.2-0.1,0.4-0.3,0.5-0.4c0.3-0.2,0.5-0.5,0.8-0.7
								c0.2-0.1,0.3-0.3,0.5-0.4c0.3-0.2,0.5-0.5,0.8-0.8c0,0,0,0,0,0c0.5-0.5,1-1.1,1.5-1.7c0,0,0,0,0,0c0.7-0.9,1.3-1.8,1.9-2.8
								c0.2-0.3,0.4-0.7,0.6-1c0-0.1,0.1-0.1,0.1-0.2c0.2-0.3,0.3-0.6,0.4-0.9c0.2-0.3,0.3-0.7,0.5-1.1c0.2-0.4,0.3-0.7,0.4-1.1
								c0.1-0.4,0.2-0.7,0.4-1.1c0,0,0,0,0-0.1c0.1-0.4,0.2-0.7,0.3-1.1c0.1-0.4,0.2-0.8,0.3-1.2c0.1-0.4,0.2-0.8,0.2-1.2
								c0.1-0.3,0.1-0.7,0.1-1c0-0.1,0-0.1,0-0.2c0.1-0.6,0.1-1.1,0.1-1.7c0-0.2,0-0.4,0-0.6v-530c0-0.2,0-0.4,0-0.6
								c0-0.6-0.1-1.1-0.1-1.7c0-0.1,0-0.1,0-0.2c0-0.3-0.1-0.7-0.1-1c-0.1-0.4-0.1-0.8-0.2-1.2c-0.1-0.4-0.2-0.8-0.3-1.2
								c-0.1-0.4-0.2-0.7-0.3-1.1c0,0,0,0,0-0.1c-0.1-0.4-0.2-0.7-0.4-1.1c-0.1-0.4-0.3-0.7-0.4-1.1c-0.1-0.4-0.3-0.7-0.5-1.1
								c-0.1-0.3-0.3-0.6-0.4-0.9c0-0.1-0.1-0.1-0.1-0.2c-0.2-0.3-0.4-0.7-0.6-1c-0.6-1-1.2-1.9-1.9-2.8c0,0,0,0,0,0
								c-0.5-0.6-1-1.2-1.5-1.7c0,0,0,0,0,0c-0.3-0.3-0.5-0.5-0.8-0.8c-0.2-0.2-0.3-0.3-0.5-0.4c-0.3-0.2-0.5-0.5-0.8-0.7
								c-0.2-0.2-0.3-0.3-0.5-0.4c-0.4-0.3-0.8-0.7-1.3-0.9c-0.2-0.1-0.3-0.2-0.5-0.3c-0.2-0.1-0.3-0.2-0.5-0.3
								c-0.3-0.2-0.7-0.4-1-0.6c-0.2-0.1-0.3-0.2-0.5-0.3c-1.6-0.8-3.3-1.5-5-2c-0.1,0-0.3-0.1-0.4-0.1c-0.2-0.1-0.4-0.1-0.6-0.1
								c-1-0.2-2-0.4-3-0.5c-0.2,0-0.3,0-0.5,0c-0.6,0-1.2-0.1-1.8-0.1h-393c-0.6,0-1.2,0-1.8,0.1c-0.2,0-0.4,0-0.6,0.1
								c-1,0.1-2,0.3-3,0.5c-0.2,0-0.4,0.1-0.6,0.1c-0.2,0-0.3,0.1-0.5,0.1c-1.7,0.5-3.4,1.1-4.9,1.9c-0.2,0.1-0.3,0.2-0.5,0.3
								c-0.7,0.4-1.3,0.8-2,1.2c-0.1,0.1-0.3,0.2-0.4,0.3c-0.3,0.2-0.5,0.4-0.8,0.6c-0.7,0.5-1.4,1.1-2,1.8
								c-0.1,0.1-0.3,0.3-0.4,0.4c-0.1,0.1-0.1,0.1-0.2,0.2c-0.1,0.1-0.1,0.1-0.2,0.2c-0.2,0.2-0.4,0.4-0.6,0.7
								c-0.2,0.2-0.4,0.4-0.5,0.6c-0.1,0.1-0.2,0.2-0.2,0.3c0,0.1-0.1,0.1-0.1,0.2c-0.2,0.2-0.4,0.5-0.5,0.7c0,0,0,0,0,0.1
								c-0.2,0.3-0.4,0.6-0.6,0.9c0,0,0,0.1-0.1,0.1c-0.2,0.3-0.4,0.6-0.5,0.9c-0.2,0.3-0.4,0.7-0.6,1c0,0.1-0.1,0.1-0.1,0.2
								c-0.2,0.3-0.3,0.6-0.4,0.9c-0.2,0.3-0.3,0.7-0.5,1.1c-0.2,0.4-0.3,0.7-0.4,1.1c-0.4,1.1-0.7,2.2-0.9,3.4
								c-0.1,0.4-0.2,0.8-0.2,1.2c-0.1,0.3-0.1,0.7-0.1,1c0,0.1,0,0.1,0,0.2c0,0.2,0,0.4,0,0.5c0,0.2,0,0.4,0,0.7c0,0.4,0,0.8,0,1.1
								v530c0,0.4,0,0.8,0,1.1c0,0.2,0,0.4,0,0.7c0,0.2,0,0.4,0,0.5c0,0.1,0,0.1,0,0.2c0,0.3,0.1,0.7,0.1,1c0.1,0.4,0.1,0.8,0.2,1.2
								c0.2,1.2,0.5,2.3,0.9,3.4c0.1,0.4,0.3,0.7,0.4,1.1c0.1,0.4,0.3,0.7,0.5,1.1c0.1,0.3,0.3,0.6,0.4,0.9c0,0.1,0.1,0.1,0.1,0.2
								c0.2,0.3,0.4,0.7,0.6,1c0.2,0.3,0.3,0.6,0.5,0.9c0,0,0,0.1,0.1,0.1c0.2,0.3,0.4,0.6,0.6,0.9c0,0,0,0,0,0.1
								c0.2,0.2,0.4,0.5,0.5,0.7c0,0.1,0.1,0.1,0.1,0.2c0.1,0.1,0.1,0.2,0.2,0.3c0.2,0.2,0.4,0.4,0.5,0.6c0.2,0.2,0.4,0.4,0.6,0.7
								c0.1,0.1,0.1,0.1,0.2,0.2c0.1,0.1,0.1,0.1,0.2,0.2c0.1,0.1,0.3,0.3,0.4,0.4c0.6,0.6,1.3,1.2,2,1.8c0.3,0.2,0.5,0.4,0.8,0.6
								c0.2,0.1,0.3,0.2,0.4,0.3c0.6,0.4,1.3,0.8,2,1.2c0.2,0.1,0.3,0.2,0.5,0.3c1.6,0.8,3.2,1.5,4.9,1.9c0.2,0,0.3,0.1,0.5,0.1
								c0.2,0.1,0.4,0.1,0.6,0.1c1,0.2,2,0.4,3,0.5C59.4,681.6,59.6,681.6,59.8,681.6z M61.7,679.4c-12.3,0-22.3-10-22.3-22.3v-530
								c0-12.3,10-22.3,22.3-22.3h393c12.3,0,22.3,10,22.3,22.3v530c0,12.3-10,22.3-22.3,22.3H61.7z"/>
							<path class="st4" d="M454.6,102.4h-393c-13.7,0-24.8,11.1-24.8,24.8v530c0,13.7,11.1,24.8,24.8,24.8h393
								c13.7,0,24.8-11.1,24.8-24.8v-530C479.4,113.5,468.3,102.4,454.6,102.4z M479.2,657.1c0,0.2,0,0.4,0,0.6c0,0.2,0,0.3,0,0.5
								v0.1c0,0.2,0,0.5-0.1,0.7c0,0.1,0,0.3,0,0.4c0,0.1,0,0.1,0,0.2c0,0.4-0.1,0.7-0.1,1c-0.1,0.4-0.1,0.8-0.2,1.2
								c-0.1,0.4-0.2,0.8-0.3,1.1c-0.1,0.4-0.2,0.8-0.3,1.1c0,0,0,0,0,0.1c-0.1,0.4-0.2,0.7-0.4,1.1c-0.1,0.4-0.3,0.7-0.4,1.1
								c-0.2,0.4-0.3,0.7-0.5,1.1c-0.1,0.3-0.3,0.6-0.4,0.9c0,0-0.1,0.1-0.1,0.2c-0.2,0.3-0.4,0.7-0.6,1c-0.6,1-1.2,1.9-1.9,2.8
								c0,0,0,0,0,0c-0.5,0.6-1,1.2-1.5,1.7c0,0,0,0,0,0c-0.3,0.3-0.5,0.5-0.8,0.8c-0.2,0.2-0.3,0.3-0.5,0.4
								c-0.3,0.2-0.5,0.5-0.8,0.7c-0.2,0.2-0.3,0.3-0.5,0.4c-0.4,0.3-0.8,0.6-1.3,0.9c-0.2,0.1-0.3,0.2-0.5,0.3
								c-0.2,0.1-0.3,0.2-0.5,0.3c-0.3,0.2-0.7,0.4-1,0.6c-0.2,0.1-0.3,0.2-0.5,0.3c-1.6,0.8-3.2,1.5-5,2c-0.1,0-0.3,0.1-0.4,0.1
								c-0.2,0-0.4,0.1-0.6,0.1c-1,0.2-2,0.4-3,0.5c-0.2,0-0.3,0-0.5,0c-0.6,0-1.2,0.1-1.8,0.1h-393c-0.6,0-1.2,0-1.8-0.1
								c-0.2,0-0.4,0-0.6,0c-1-0.1-2-0.3-3-0.5c-0.2,0-0.4-0.1-0.6-0.1c-0.2,0-0.3-0.1-0.5-0.1c-1.7-0.5-3.4-1.1-4.9-2
								c-0.2-0.1-0.3-0.2-0.5-0.3c-0.7-0.4-1.3-0.8-2-1.2c-0.1-0.1-0.3-0.2-0.4-0.3c-0.3-0.2-0.5-0.4-0.8-0.6
								c-0.7-0.5-1.4-1.1-2-1.8c-0.2-0.1-0.3-0.3-0.4-0.4c-0.1-0.1-0.2-0.1-0.2-0.2c-0.1-0.1-0.1-0.1-0.2-0.2
								c-0.2-0.2-0.4-0.4-0.6-0.6c-0.2-0.2-0.4-0.4-0.5-0.6c-0.1-0.1-0.2-0.2-0.2-0.3c0,0-0.1-0.1-0.1-0.2c-0.2-0.2-0.4-0.5-0.5-0.7
								c0,0,0,0,0-0.1c-0.2-0.3-0.4-0.6-0.6-0.9c0,0,0-0.1-0.1-0.1c-0.2-0.3-0.4-0.6-0.5-0.9c-0.2-0.3-0.4-0.7-0.6-1
								c0-0.1,0-0.1-0.1-0.2c-0.1-0.3-0.3-0.6-0.4-0.9c-0.2-0.4-0.3-0.7-0.5-1.1c-0.1-0.4-0.3-0.7-0.4-1.1c-0.4-1.1-0.7-2.2-0.9-3.4
								c-0.1-0.4-0.2-0.8-0.2-1.2c0-0.3-0.1-0.7-0.1-1c0,0,0-0.1,0-0.2v-0.1c0-0.1,0-0.3,0-0.4c0-0.2,0-0.4,0-0.6c0-0.4,0-0.8,0-1.2
								v-530c0-0.4,0-0.8,0-1.1c0-0.2,0-0.4,0-0.7c0-0.1,0-0.3,0-0.4v-0.1c0-0.1,0-0.1,0-0.2c0-0.4,0.1-0.7,0.1-1
								c0.1-0.4,0.1-0.8,0.2-1.2c0.2-1.2,0.5-2.3,0.9-3.4c0.1-0.4,0.3-0.7,0.4-1.1c0.2-0.4,0.3-0.7,0.5-1.1c0.1-0.3,0.3-0.6,0.4-0.9
								c0,0,0-0.1,0.1-0.2c0.2-0.3,0.4-0.7,0.6-1c0.2-0.3,0.3-0.6,0.5-0.9c0,0,0-0.1,0.1-0.1c0.2-0.3,0.4-0.6,0.6-0.9c0,0,0,0,0-0.1
								c0.2-0.2,0.4-0.5,0.5-0.7c0-0.1,0.1-0.1,0.1-0.2c0.1-0.1,0.2-0.2,0.2-0.3c0.2-0.2,0.4-0.4,0.5-0.6c0.2-0.2,0.4-0.4,0.6-0.7
								c0.1-0.1,0.1-0.1,0.2-0.2c0.1-0.1,0.1-0.1,0.2-0.2c0.1-0.1,0.3-0.3,0.4-0.4c0.6-0.6,1.3-1.2,2-1.7c0.3-0.2,0.5-0.4,0.8-0.6
								c0.2-0.1,0.3-0.2,0.4-0.3c0.6-0.4,1.3-0.8,2-1.2c0.2-0.1,0.3-0.2,0.5-0.3c1.5-0.8,3.2-1.5,4.9-1.9c0.2,0,0.3-0.1,0.5-0.1
								c0.2-0.1,0.4-0.1,0.6-0.1c1-0.2,2-0.4,3-0.5c0.2,0,0.4,0,0.6,0c0.6,0,1.2-0.1,1.8-0.1h393c0.6,0,1.2,0,1.8,0.1
								c0.2,0,0.3,0,0.5,0c1,0.1,2,0.2,3,0.5c0.2,0,0.4,0.1,0.6,0.1c0.2,0,0.3,0.1,0.4,0.1c1.8,0.5,3.4,1.1,5,2
								c0.2,0.1,0.3,0.2,0.5,0.3c0.4,0.2,0.7,0.4,1,0.6c0.2,0.1,0.3,0.2,0.5,0.3c0.2,0.1,0.3,0.2,0.5,0.3c0.4,0.3,0.9,0.6,1.3,0.9
								c0.2,0.1,0.4,0.3,0.5,0.4c0.3,0.2,0.6,0.5,0.8,0.7c0.2,0.1,0.3,0.3,0.5,0.4c0.3,0.2,0.5,0.5,0.8,0.8c0,0,0,0,0,0
								c0.5,0.5,1,1.1,1.5,1.7c0,0,0,0,0,0c0.7,0.9,1.3,1.8,1.9,2.8c0.2,0.3,0.4,0.7,0.6,1c0,0,0,0.1,0.1,0.2
								c0.2,0.3,0.3,0.6,0.4,0.9c0.2,0.4,0.3,0.7,0.5,1.1c0.2,0.4,0.3,0.7,0.4,1.1c0.1,0.4,0.2,0.7,0.4,1.1c0,0,0,0,0,0.1
								c0.1,0.4,0.2,0.7,0.3,1.1c0.1,0.4,0.2,0.8,0.3,1.2c0.1,0.4,0.1,0.8,0.2,1.2c0,0.3,0.1,0.7,0.1,1c0,0,0,0.1,0,0.2v0.1
								c0,0.1,0,0.2,0,0.3c0,0.2,0,0.5,0.1,0.7v0.1c0,0.2,0,0.3,0,0.5c0,0.2,0,0.4,0,0.6V657.1z"/>
							<g>
								
									<linearGradient id="SVGID_4_" gradientUnits="userSpaceOnUse" x1="-2714.9851" y1="2881.4844" x2="-2245.0757" y2="3351.3938" gradientTransform="matrix(0 1 1 0 -2858.2966 2872.1643)">
									<stop  offset="0" style="stop-color:#F1F2F3"/>
									<stop  offset="0.363" style="stop-color:#ECEDEE"/>
									<stop  offset="0.7982" style="stop-color:#DEDFDF"/>
									<stop  offset="1" style="stop-color:#D5D6D6"/>
								</linearGradient>
								<path class="st5" d="M55.7,657.1v-530c0-3.3,2.7-6,6-6h393c3.3,0,6,2.7,6,6v530c0,3.3-2.7,6-6,6h-393
									C58.4,663.1,55.7,660.4,55.7,657.1z"/>
							</g>
							<path d="M61.7,679.4h393c12.3,0,22.3-10,22.3-22.3v-530c0-12.3-10-22.3-22.3-22.3h-393c-12.3,0-22.3,10-22.3,22.3v530
								C39.4,669.4,49.4,679.4,61.7,679.4z M61.7,663.5c-3.5,0-6.4-2.9-6.4-6.4v-530c0-3.5,2.9-6.4,6.4-6.4h393
								c3.5,0,6.4,2.9,6.4,6.4v530c0,3.5-2.9,6.4-6.4,6.4H61.7z"/>
						</g>
						
							<linearGradient id="SVGID_5_" gradientUnits="userSpaceOnUse" x1="-2769.5474" y1="3116.4617" x2="-2746.1516" y2="3116.4617" gradientTransform="matrix(0 1 1 0 -2858.2966 2872.1643)">
							<stop  offset="0" style="stop-color:#F0F0F0"/>
							<stop  offset="5.663204e-02" style="stop-color:#DDDDDD"/>
							<stop  offset="0.1431" style="stop-color:#C7C7C7"/>
							<stop  offset="0.2447" style="stop-color:#B6B6B6"/>
							<stop  offset="0.3695" style="stop-color:#AAAAAA"/>
							<stop  offset="0.5425" style="stop-color:#A3A3A3"/>
							<stop  offset="1" style="stop-color:#A1A1A1"/>
						</linearGradient>
						<path class="st6" d="M479.1,126c0-0.3,0-0.5-0.1-0.8c0-0.1,0-0.3,0-0.4c0-0.1,0-0.1,0-0.2c0-0.3-0.1-0.7-0.1-1
							c-0.1-0.4-0.1-0.8-0.2-1.2c-0.1-0.4-0.2-0.8-0.3-1.2c-0.1-0.4-0.2-0.7-0.3-1.1c0,0,0,0,0-0.1c-0.1-0.4-0.2-0.7-0.4-1.1
							c-0.1-0.4-0.3-0.7-0.4-1.1c-0.1-0.4-0.3-0.7-0.5-1.1c-0.1-0.3-0.3-0.6-0.4-0.9c0-0.1-0.1-0.1-0.1-0.2c-0.2-0.3-0.4-0.7-0.6-1
							c-0.6-1-1.2-1.9-1.9-2.8c0,0,0,0,0,0c-0.5-0.6-1-1.2-1.5-1.7c0,0,0,0,0,0c-0.3-0.3-0.5-0.5-0.8-0.8c-0.2-0.2-0.3-0.3-0.5-0.4
							c-0.3-0.2-0.5-0.5-0.8-0.7c-0.2-0.2-0.3-0.3-0.5-0.4c-0.4-0.3-0.8-0.6-1.3-0.9c-0.2-0.1-0.3-0.2-0.5-0.3
							c-0.2-0.1-0.3-0.2-0.5-0.3c-0.3-0.2-0.7-0.4-1-0.6c-0.2-0.1-0.3-0.2-0.5-0.3c-1.6-0.8-3.3-1.5-5-2c-0.1,0-0.3-0.1-0.4-0.1
							c-0.2-0.1-0.4-0.1-0.6-0.1c-1-0.2-2-0.4-3-0.5c-0.2,0-0.3,0-0.5,0c-0.6,0-1.2-0.1-1.8-0.1h-393c-0.6,0-1.2,0-1.8,0.1
							c-0.2,0-0.4,0-0.6,0.1c-1,0.1-2,0.3-3,0.5c-0.2,0-0.4,0.1-0.6,0.1c-0.2,0-0.3,0.1-0.5,0.1c-1.7,0.5-3.4,1.1-4.9,1.9
							c-0.2,0.1-0.3,0.2-0.5,0.3c-0.7,0.4-1.3,0.8-2,1.2c-0.1,0.1-0.3,0.2-0.4,0.3c-0.3,0.2-0.5,0.4-0.8,0.6c-0.7,0.5-1.4,1.1-2,1.8
							c-0.1,0.1-0.3,0.3-0.4,0.4c-0.1,0.1-0.1,0.1-0.2,0.2c-0.1,0.1-0.1,0.1-0.2,0.2c-0.2,0.2-0.4,0.4-0.6,0.7
							c-0.2,0.2-0.4,0.4-0.5,0.6c-0.1,0.1-0.2,0.2-0.2,0.3c0,0.1-0.1,0.1-0.1,0.2c-0.2,0.2-0.4,0.5-0.5,0.7c0,0,0,0,0,0.1
							c-0.2,0.3-0.4,0.6-0.6,0.9c0,0,0,0.1-0.1,0.1c-0.2,0.3-0.4,0.6-0.5,0.9c-0.2,0.3-0.4,0.7-0.6,1c0,0.1-0.1,0.1-0.1,0.2
							c-0.1,0.3-0.3,0.6-0.4,0.9c-0.2,0.3-0.3,0.7-0.5,1.1c-0.2,0.4-0.3,0.7-0.4,1.1c-0.4,1.1-0.7,2.2-0.9,3.4
							c-0.1,0.4-0.1,0.8-0.2,1.2c0,0.3-0.1,0.7-0.1,1c0,0.1,0,0.1,0,0.2c0,0.2,0,0.4,0,0.5c0-0.1,0-0.3,0-0.4c0-0.4,0.1-0.7,0.1-1.1
							c0-0.2,0.1-0.3,0.1-0.5c0-0.2,0.1-0.4,0.1-0.6c0.1-0.3,0.1-0.6,0.2-1c0.1-0.3,0.2-0.7,0.3-1c0.1-0.3,0.2-0.6,0.3-0.8
							c0.2-0.6,0.4-1.2,0.7-1.7c0.1-0.2,0.2-0.3,0.2-0.5c0.1-0.3,0.3-0.5,0.4-0.8c0,0,0,0,0-0.1c0.2-0.3,0.3-0.6,0.5-0.9
							c0,0,0,0,0,0c0.1-0.2,0.2-0.4,0.4-0.6c0.1-0.2,0.2-0.3,0.3-0.5c0,0,0.1-0.1,0.1-0.1c0.2-0.3,0.4-0.5,0.6-0.8
							c0.2-0.3,0.4-0.5,0.6-0.8c0-0.1,0.1-0.1,0.1-0.2c0.2-0.2,0.4-0.5,0.6-0.7c0.2-0.3,0.5-0.5,0.7-0.8c0.2-0.2,0.4-0.4,0.7-0.7
							c0.1-0.1,0.1-0.1,0.2-0.2c0.2-0.2,0.5-0.4,0.7-0.6c0.3-0.2,0.6-0.5,0.8-0.7c0.2-0.2,0.5-0.3,0.7-0.5c0.1-0.1,0.2-0.2,0.4-0.3
							c0.1-0.1,0.3-0.2,0.5-0.3c0.1-0.1,0.3-0.2,0.4-0.3c0.3-0.2,0.6-0.3,0.9-0.5c0.2-0.1,0.4-0.2,0.6-0.3c0.4-0.2,0.9-0.4,1.4-0.6
							c0.1-0.1,0.3-0.1,0.4-0.2c0.2-0.1,0.5-0.2,0.7-0.3c0.3-0.1,0.6-0.2,0.9-0.3c0.3-0.1,0.6-0.2,0.9-0.3c0,0,0,0,0,0
							c0.3-0.1,0.7-0.2,1-0.2c0,0,0,0,0.1,0c0.3-0.1,0.5-0.1,0.8-0.1c1.2-0.2,2.4-0.3,3.7-0.3h397.5c0.4,0,0.9,0,1.3,0
							c0.2,0,0.5,0,0.7,0c0.2,0,0.4,0,0.6,0.1c0.1,0,0.2,0,0.3,0c0.3,0,0.5,0.1,0.8,0.1c0,0,0.1,0,0.1,0c0.2,0,0.3,0.1,0.5,0.1
							c0.1,0,0.2,0,0.2,0c0,0,0.1,0,0.1,0c0.2,0,0.5,0.1,0.7,0.2c0.1,0,0.2,0,0.3,0.1c0.3,0.1,0.7,0.2,1,0.3
							c0.3,0.1,0.6,0.2,0.9,0.3c0,0,0,0,0,0c0.2,0.1,0.3,0.1,0.5,0.2c0,0,0,0,0.1,0c0.2,0.1,0.3,0.1,0.5,0.2c0,0,0,0,0,0
							c0.5,0.2,0.9,0.4,1.3,0.6c0.2,0.1,0.4,0.2,0.6,0.3c0.3,0.2,0.6,0.3,0.9,0.5c0.2,0.1,0.3,0.2,0.4,0.3c0.2,0.1,0.3,0.2,0.5,0.3
							c0.1,0.1,0.2,0.2,0.4,0.3c0.2,0.2,0.5,0.3,0.7,0.5c0.3,0.2,0.6,0.4,0.8,0.7c0.2,0.2,0.4,0.3,0.6,0.5c0,0,0.1,0.1,0.1,0.1
							c0.1,0.1,0.1,0.1,0.2,0.2c0,0,0,0,0.1,0.1c0.2,0.2,0.4,0.4,0.6,0.6c0.2,0.2,0.4,0.4,0.6,0.6c0,0,0,0,0,0
							c0.1,0.1,0.2,0.2,0.2,0.3c0.2,0.2,0.3,0.4,0.5,0.6c0.1,0.1,0.1,0.1,0.2,0.2c0.2,0.2,0.4,0.5,0.6,0.8c0.2,0.2,0.3,0.4,0.4,0.6
							c0,0,0,0,0,0.1c0.1,0.2,0.2,0.3,0.3,0.5c0.2,0.3,0.3,0.5,0.5,0.8c0,0,0,0,0,0c0.1,0.2,0.2,0.4,0.3,0.6
							c0.1,0.1,0.1,0.2,0.2,0.3c0.1,0.2,0.2,0.4,0.3,0.6c0.1,0.3,0.3,0.5,0.4,0.8c0.1,0.2,0.2,0.4,0.3,0.6c0,0.1,0.1,0.1,0.1,0.2
							c0.1,0.2,0.2,0.4,0.2,0.6c0.1,0.1,0.1,0.3,0.1,0.4c0,0,0,0.1,0,0.1c0.1,0.2,0.2,0.5,0.2,0.7c0.1,0.3,0.2,0.5,0.2,0.8
							c0,0,0,0.1,0,0.1c0,0.1,0,0.2,0.1,0.3c0.1,0.3,0.1,0.5,0.2,0.8c0,0,0,0,0,0c0,0.2,0.1,0.4,0.1,0.6c0,0.2,0.1,0.3,0.1,0.5
							c0.1,0.4,0.1,0.7,0.1,1.1C479.1,125.3,479.1,125.6,479.1,126z"/>
						<path class="st4" d="M479.2,127.2c0-0.4,0-0.8,0-1.1C479.2,126.4,479.2,126.8,479.2,127.2z"/>
						
							<linearGradient id="SVGID_6_" gradientUnits="userSpaceOnUse" x1="-2213.2502" y1="3116.4353" x2="-2190.5134" y2="3116.4353" gradientTransform="matrix(0 1 1 0 -2858.2966 2872.1643)">
							<stop  offset="0" style="stop-color:#A1A1A1"/>
							<stop  offset="0.4575" style="stop-color:#A3A3A3"/>
							<stop  offset="0.6305" style="stop-color:#AAAAAA"/>
							<stop  offset="0.7553" style="stop-color:#B6B6B6"/>
							<stop  offset="0.8569" style="stop-color:#C7C7C7"/>
							<stop  offset="0.9434" style="stop-color:#DDDDDD"/>
							<stop  offset="1" style="stop-color:#F0F0F0"/>
						</linearGradient>
						<path class="st7" d="M61.7,681.7h393c0.6,0,1.2,0,1.8-0.1c0.2,0,0.3,0,0.5,0c1-0.1,2-0.3,3-0.5c0.2,0,0.4-0.1,0.6-0.1
							c0.1,0,0.3-0.1,0.4-0.1c1.8-0.5,3.4-1.1,5-2c0.2-0.1,0.3-0.2,0.5-0.3c0.3-0.2,0.7-0.4,1-0.6c0.2-0.1,0.3-0.2,0.5-0.3
							c0.2-0.1,0.3-0.2,0.5-0.3c0.4-0.3,0.9-0.6,1.3-0.9c0.2-0.1,0.4-0.3,0.5-0.4c0.3-0.2,0.6-0.5,0.8-0.7c0.2-0.1,0.3-0.3,0.5-0.4
							c0.3-0.3,0.5-0.5,0.8-0.8c0,0,0,0,0,0c0.5-0.5,1-1.1,1.5-1.7c0,0,0,0,0,0c0.7-0.9,1.3-1.8,1.9-2.8c0.2-0.3,0.4-0.7,0.6-1
							c0-0.1,0.1-0.1,0.1-0.2c0.1-0.3,0.3-0.6,0.4-0.9c0.2-0.3,0.3-0.7,0.5-1.1c0.2-0.4,0.3-0.7,0.4-1.1c0.1-0.4,0.2-0.7,0.4-1.1
							c0,0,0,0,0-0.1c0.1-0.4,0.2-0.7,0.3-1.1c0.1-0.4,0.2-0.8,0.3-1.2c0.1-0.4,0.1-0.8,0.2-1.2c0-0.3,0.1-0.7,0.1-1
							c0-0.1,0-0.1,0-0.2c0-0.1,0-0.3,0-0.4c0,0.1,0,0.2,0,0.3c0,0.4-0.1,0.7-0.1,1.1c0,0.2-0.1,0.3-0.1,0.5c0,0.2-0.1,0.4-0.1,0.6
							c-0.1,0.4-0.2,0.7-0.2,1.1c-0.1,0.3-0.2,0.6-0.3,0.9c-0.1,0.2-0.2,0.5-0.2,0.7c-0.2,0.5-0.3,0.9-0.5,1.3
							c-0.1,0.2-0.2,0.4-0.3,0.6c-0.1,0.3-0.2,0.5-0.4,0.8c-0.1,0.2-0.2,0.4-0.3,0.6c-0.1,0.1-0.1,0.2-0.2,0.3
							c-0.1,0.2-0.2,0.4-0.3,0.6c-0.2,0.3-0.3,0.5-0.5,0.8c-0.1,0.2-0.2,0.3-0.3,0.5c-0.1,0.2-0.3,0.4-0.5,0.6
							c-0.2,0.3-0.4,0.5-0.6,0.8c-0.1,0.1-0.1,0.1-0.2,0.2c-0.2,0.2-0.3,0.4-0.5,0.6c-0.1,0.1-0.2,0.2-0.2,0.3
							c-0.2,0.2-0.4,0.4-0.6,0.6c-0.2,0.2-0.4,0.4-0.7,0.7c-0.1,0.1-0.1,0.1-0.2,0.2c-0.2,0.2-0.5,0.4-0.7,0.6
							c-0.3,0.2-0.6,0.5-0.8,0.7c-0.2,0.2-0.5,0.3-0.7,0.5c-0.1,0.1-0.2,0.2-0.4,0.3c-0.2,0.1-0.3,0.2-0.5,0.3
							c-0.1,0.1-0.3,0.2-0.4,0.3c-0.3,0.2-0.6,0.3-0.9,0.5c-0.2,0.1-0.4,0.2-0.6,0.3c-0.4,0.2-0.9,0.4-1.3,0.6
							c-0.2,0.1-0.4,0.1-0.5,0.2c-0.2,0.1-0.4,0.1-0.6,0.2c-0.3,0.1-0.6,0.2-0.9,0.3c-0.3,0.1-0.6,0.2-1,0.3
							c-0.3,0.1-0.7,0.2-1.1,0.2c-0.3,0.1-0.5,0.1-0.8,0.1c-1.2,0.2-2.4,0.3-3.7,0.3H59.4c-1.3,0-2.5-0.1-3.7-0.3
							c-0.3,0-0.5-0.1-0.8-0.1c0,0,0,0-0.1,0c-0.3-0.1-0.7-0.2-1-0.2c0,0,0,0,0,0c-0.3-0.1-0.6-0.2-0.9-0.3
							c-0.3-0.1-0.6-0.2-0.9-0.3c-0.2-0.1-0.5-0.2-0.7-0.3c-0.2-0.1-0.3-0.1-0.4-0.2c-0.5-0.2-0.9-0.4-1.4-0.6
							c-0.2-0.1-0.4-0.2-0.6-0.3c-0.3-0.2-0.6-0.3-0.9-0.5c-0.2-0.1-0.3-0.2-0.4-0.3c-0.2-0.1-0.3-0.2-0.5-0.3
							c-0.1-0.1-0.2-0.2-0.4-0.3c-0.2-0.2-0.5-0.3-0.7-0.5c-0.3-0.2-0.6-0.4-0.8-0.7c-0.2-0.2-0.5-0.4-0.7-0.6
							c-0.1-0.1-0.1-0.1-0.2-0.2c-0.2-0.2-0.5-0.4-0.7-0.7c-0.3-0.2-0.5-0.5-0.7-0.8c-0.2-0.2-0.4-0.5-0.6-0.7
							c-0.1,0-0.1-0.1-0.1-0.2c-0.2-0.3-0.4-0.5-0.6-0.8c-0.2-0.3-0.4-0.5-0.6-0.8c0,0-0.1-0.1-0.1-0.1c-0.1-0.2-0.2-0.3-0.3-0.5
							c-0.1-0.2-0.2-0.4-0.4-0.6c0,0,0,0,0,0c-0.2-0.3-0.3-0.6-0.5-0.9c0,0,0,0,0-0.1c-0.1-0.3-0.3-0.5-0.4-0.8
							c-0.1-0.2-0.2-0.3-0.2-0.5c-0.3-0.6-0.5-1.1-0.7-1.7c-0.1-0.3-0.2-0.5-0.3-0.8c-0.1-0.3-0.2-0.7-0.3-1c-0.1-0.3-0.2-0.6-0.2-1
							c0-0.2-0.1-0.4-0.1-0.6c0-0.2-0.1-0.3-0.1-0.5c-0.1-0.4-0.1-0.7-0.1-1.1c0-0.1,0-0.3,0-0.4c0,0.2,0,0.4,0,0.5
							c0,0.1,0,0.1,0,0.2c0,0.3,0.1,0.7,0.1,1c0.1,0.4,0.1,0.8,0.2,1.2c0.2,1.2,0.5,2.3,0.9,3.4c0.1,0.4,0.3,0.7,0.4,1.1
							c0.1,0.4,0.3,0.7,0.5,1.1c0.1,0.3,0.3,0.6,0.4,0.9c0,0.1,0.1,0.1,0.1,0.2c0.2,0.3,0.4,0.7,0.6,1c0.2,0.3,0.4,0.6,0.5,0.9
							c0,0,0,0.1,0.1,0.1c0.2,0.3,0.4,0.6,0.6,0.9c0,0,0,0,0,0.1c0.2,0.2,0.4,0.5,0.5,0.7c0,0.1,0.1,0.1,0.1,0.2
							c0.1,0.1,0.1,0.2,0.2,0.3c0.2,0.2,0.4,0.4,0.5,0.6c0.2,0.2,0.4,0.4,0.6,0.7c0.1,0.1,0.1,0.1,0.2,0.2c0.1,0.1,0.1,0.1,0.2,0.2
							c0.1,0.1,0.3,0.3,0.4,0.4c0.6,0.6,1.3,1.2,2,1.8c0.3,0.2,0.5,0.4,0.8,0.6c0.2,0.1,0.3,0.2,0.4,0.3c0.6,0.4,1.3,0.8,2,1.2
							c0.2,0.1,0.3,0.2,0.5,0.3c1.6,0.8,3.2,1.5,4.9,1.9c0.2,0,0.3,0.1,0.5,0.1c0.2,0.1,0.4,0.1,0.6,0.1c1,0.2,2,0.4,3,0.5
							c0.2,0,0.4,0,0.6,0.1C60.4,681.6,61,681.7,61.7,681.7z"/>
						<path class="st4" d="M479.2,657.1c0,0.4,0,0.8,0,1.1C479.2,657.9,479.2,657.5,479.2,657.1z"/>
						
							<linearGradient id="SVGID_7_" gradientUnits="userSpaceOnUse" x1="-2767.2744" y1="2907.6865" x2="-2192.7864" y2="2907.6865" gradientTransform="matrix(0 1 1 0 -2858.2966 2872.1643)">
							<stop  offset="0" style="stop-color:#C9C9C9"/>
							<stop  offset="0.4778" style="stop-color:#F0F0F0"/>
							<stop  offset="0.6382" style="stop-color:#EBEBEB"/>
							<stop  offset="0.8239" style="stop-color:#DDDDDD"/>
							<stop  offset="1" style="stop-color:#C9C9C9"/>
						</linearGradient>
						<path class="st8" d="M59.4,679.4h2.3c-12.3,0-22.3-10-22.3-22.3v-530c0-12.3,10-22.3,22.3-22.3h-2.3c-1.3,0-2.5,0.1-3.7,0.3
							c-0.3,0-0.5,0.1-0.8,0.1c0,0,0,0-0.1,0c-0.3,0.1-0.7,0.2-1,0.2c0,0,0,0,0,0c-0.3,0.1-0.6,0.2-0.9,0.3
							c-0.3,0.1-0.6,0.2-0.9,0.3c-0.2,0.1-0.5,0.2-0.7,0.3c-0.2,0.1-0.3,0.1-0.4,0.2c-0.5,0.2-0.9,0.4-1.4,0.6
							c-0.2,0.1-0.4,0.2-0.6,0.3c-0.3,0.2-0.6,0.3-0.9,0.5c-0.2,0.1-0.3,0.2-0.4,0.3c-0.2,0.1-0.3,0.2-0.5,0.3
							c-0.1,0.1-0.2,0.2-0.4,0.3c-0.2,0.2-0.5,0.3-0.7,0.5c-0.3,0.2-0.6,0.4-0.8,0.7c-0.2,0.2-0.5,0.4-0.7,0.6
							c-0.1,0.1-0.1,0.1-0.2,0.2c-0.2,0.2-0.5,0.4-0.7,0.7c-0.3,0.2-0.5,0.5-0.7,0.8c-0.2,0.2-0.4,0.5-0.6,0.7
							c-0.1,0-0.1,0.1-0.1,0.2c-0.2,0.2-0.4,0.5-0.6,0.8c-0.2,0.3-0.4,0.5-0.6,0.8c0,0-0.1,0.1-0.1,0.1c-0.1,0.2-0.2,0.3-0.3,0.5
							c-0.1,0.2-0.2,0.4-0.4,0.6c0,0,0,0,0,0c-0.2,0.3-0.3,0.6-0.5,0.9c0,0,0,0,0,0.1c-0.1,0.3-0.3,0.5-0.4,0.8
							c-0.1,0.2-0.2,0.3-0.2,0.5c-0.3,0.6-0.5,1.1-0.7,1.7c-0.1,0.3-0.2,0.5-0.3,0.8c-0.1,0.3-0.2,0.7-0.3,1c-0.1,0.3-0.2,0.6-0.2,1
							c0,0.2-0.1,0.4-0.1,0.6c0,0.2-0.1,0.3-0.1,0.5c-0.1,0.4-0.1,0.7-0.1,1.1c0,0.1,0,0.3,0,0.4c0,0.2,0,0.4,0,0.7
							c0,0.4,0,0.8,0,1.1v530c0,0.4,0,0.8,0,1.1c0,0.2,0,0.4,0,0.7c0,0.1,0,0.3,0,0.4c0,0.4,0.1,0.7,0.1,1.1c0,0.2,0.1,0.3,0.1,0.5
							c0,0.2,0.1,0.4,0.1,0.6c0.1,0.3,0.1,0.6,0.2,1c0.1,0.3,0.2,0.7,0.3,1c0.1,0.3,0.2,0.6,0.3,0.8c0.2,0.6,0.4,1.2,0.7,1.7
							c0.1,0.2,0.2,0.3,0.2,0.5c0.1,0.3,0.3,0.5,0.4,0.8c0,0,0,0,0,0.1c0.2,0.3,0.3,0.6,0.5,0.9c0,0,0,0,0,0
							c0.1,0.2,0.2,0.4,0.4,0.6c0.1,0.2,0.2,0.3,0.3,0.5c0,0,0.1,0.1,0.1,0.1c0.2,0.3,0.4,0.5,0.6,0.8s0.4,0.5,0.6,0.8
							c0,0.1,0.1,0.1,0.1,0.2c0.2,0.3,0.4,0.5,0.6,0.7c0.2,0.3,0.5,0.5,0.7,0.8c0.2,0.2,0.4,0.4,0.7,0.7c0.1,0.1,0.1,0.1,0.2,0.2
							c0.2,0.2,0.5,0.4,0.7,0.6c0.3,0.2,0.6,0.4,0.8,0.7c0.2,0.2,0.5,0.3,0.7,0.5c0.1,0.1,0.2,0.2,0.4,0.3c0.1,0.1,0.3,0.2,0.5,0.3
							c0.1,0.1,0.3,0.2,0.4,0.3c0.3,0.2,0.6,0.3,0.9,0.5c0.2,0.1,0.4,0.2,0.6,0.3c0.4,0.2,0.9,0.4,1.4,0.6c0.1,0.1,0.3,0.1,0.4,0.2
							c0.2,0.1,0.5,0.2,0.7,0.3c0.3,0.1,0.6,0.2,0.9,0.3c0.3,0.1,0.6,0.2,0.9,0.3c0,0,0,0,0,0c0.3,0.1,0.7,0.2,1,0.2c0,0,0,0,0.1,0
							c0.3,0.1,0.5,0.1,0.8,0.1C56.9,679.3,58.1,679.4,59.4,679.4z"/>
						
							<linearGradient id="SVGID_8_" gradientUnits="userSpaceOnUse" x1="-2767.2744" y1="3325.1917" x2="-2192.7864" y2="3325.1917" gradientTransform="matrix(0 1 1 0 -2858.2966 2872.1643)">
							<stop  offset="0" style="stop-color:#C9C9C9"/>
							<stop  offset="0.4778" style="stop-color:#F0F0F0"/>
							<stop  offset="0.6382" style="stop-color:#EBEBEB"/>
							<stop  offset="0.8239" style="stop-color:#DDDDDD"/>
							<stop  offset="1" style="stop-color:#C9C9C9"/>
						</linearGradient>
						<path class="st9" d="M454.6,679.4h2.3c1.2,0,2.5-0.1,3.7-0.3c0.3,0,0.5-0.1,0.8-0.1c0.4-0.1,0.7-0.2,1.1-0.2
							c0.3-0.1,0.7-0.2,1-0.3c0.3-0.1,0.6-0.2,0.9-0.3c0.2-0.1,0.4-0.1,0.6-0.2c0.2-0.1,0.4-0.1,0.5-0.2c0.5-0.2,0.9-0.4,1.3-0.6
							c0.2-0.1,0.4-0.2,0.6-0.3c0.3-0.2,0.6-0.3,0.9-0.5c0.2-0.1,0.3-0.2,0.4-0.3c0.2-0.1,0.3-0.2,0.5-0.3c0.1-0.1,0.2-0.2,0.4-0.3
							c0.2-0.2,0.5-0.3,0.7-0.5c0.3-0.2,0.6-0.4,0.8-0.7c0.2-0.2,0.5-0.4,0.7-0.6c0.1-0.1,0.1-0.1,0.2-0.2c0.2-0.2,0.5-0.4,0.7-0.7
							c0.2-0.2,0.4-0.4,0.6-0.6c0.1-0.1,0.2-0.2,0.2-0.3c0.2-0.2,0.3-0.4,0.5-0.6c0.1-0.1,0.1-0.1,0.2-0.2c0.2-0.3,0.4-0.5,0.6-0.8
							c0.2-0.2,0.3-0.4,0.5-0.6c0.1-0.2,0.2-0.3,0.3-0.5c0.2-0.3,0.3-0.5,0.5-0.8c0.1-0.2,0.2-0.4,0.3-0.6c0.1-0.1,0.1-0.2,0.2-0.3
							c0.1-0.2,0.2-0.4,0.3-0.6c0.1-0.3,0.3-0.5,0.4-0.8c0.1-0.2,0.2-0.4,0.3-0.6c0.2-0.4,0.3-0.9,0.5-1.3c0.1-0.2,0.2-0.5,0.2-0.7
							c0.1-0.3,0.2-0.6,0.3-0.9c0.1-0.4,0.2-0.7,0.2-1.1c0-0.2,0.1-0.4,0.1-0.6c0-0.2,0.1-0.3,0.1-0.5c0.1-0.4,0.1-0.7,0.1-1.1
							c0-0.1,0-0.2,0-0.3c0-0.3,0-0.5,0.1-0.8c0-0.2,0-0.3,0-0.5c0-0.2,0-0.4,0-0.6v-530c0-0.2,0-0.4,0-0.6c0-0.2,0-0.3,0-0.5
							c0-0.3,0-0.5-0.1-0.8c0-0.1,0-0.2,0-0.3c0-0.4-0.1-0.7-0.1-1.1c0-0.2-0.1-0.3-0.1-0.5c0-0.2-0.1-0.4-0.1-0.6c0,0,0,0,0,0
							c-0.1-0.3-0.1-0.5-0.2-0.8c0-0.1,0-0.2-0.1-0.3c0,0,0-0.1,0-0.1c-0.1-0.3-0.1-0.5-0.2-0.8c-0.1-0.2-0.2-0.5-0.2-0.7
							c0,0,0-0.1,0-0.1c0-0.1-0.1-0.3-0.1-0.4c-0.1-0.2-0.2-0.4-0.2-0.6c0-0.1-0.1-0.1-0.1-0.2c-0.1-0.2-0.2-0.4-0.3-0.6
							c-0.1-0.3-0.2-0.5-0.4-0.8c-0.1-0.2-0.2-0.4-0.3-0.6c-0.1-0.1-0.1-0.2-0.2-0.3c-0.1-0.2-0.2-0.4-0.3-0.6c0,0,0,0,0,0
							c-0.2-0.3-0.3-0.5-0.5-0.8c-0.1-0.2-0.2-0.3-0.3-0.5c0,0,0,0,0-0.1c-0.1-0.2-0.3-0.4-0.4-0.6c-0.2-0.3-0.4-0.5-0.6-0.8
							c-0.1-0.1-0.1-0.1-0.2-0.2c-0.2-0.2-0.3-0.4-0.5-0.6c-0.1-0.1-0.2-0.2-0.2-0.3c0,0,0,0,0,0c-0.2-0.2-0.4-0.4-0.6-0.6
							c-0.2-0.2-0.4-0.4-0.6-0.6c0,0,0,0-0.1-0.1c-0.1-0.1-0.1-0.1-0.2-0.2c0,0-0.1-0.1-0.1-0.1c-0.2-0.2-0.4-0.4-0.6-0.5
							c-0.3-0.2-0.6-0.4-0.8-0.7c-0.2-0.2-0.5-0.3-0.7-0.5c-0.1-0.1-0.2-0.2-0.4-0.3c-0.2-0.1-0.3-0.2-0.5-0.3
							c-0.1-0.1-0.3-0.2-0.4-0.3c-0.3-0.2-0.6-0.3-0.9-0.5c-0.2-0.1-0.4-0.2-0.6-0.3c-0.4-0.2-0.9-0.4-1.3-0.6c0,0,0,0,0,0
							c-0.2-0.1-0.3-0.1-0.5-0.2c0,0,0,0-0.1,0c-0.2-0.1-0.3-0.1-0.5-0.2c0,0,0,0,0,0c-0.3-0.1-0.6-0.2-0.9-0.3
							c-0.3-0.1-0.6-0.2-1-0.3c-0.1,0-0.2-0.1-0.3-0.1c-0.2-0.1-0.5-0.1-0.7-0.2c0,0-0.1,0-0.1,0c-0.1,0-0.2,0-0.2,0
							c-0.2,0-0.3-0.1-0.5-0.1c0,0-0.1,0-0.1,0c-0.3,0-0.5-0.1-0.8-0.1c-0.1,0-0.2,0-0.3,0c-0.2,0-0.4,0-0.6-0.1c-0.2,0-0.5,0-0.7,0
							c-0.4,0-0.9,0-1.3,0h-2.3c12.3,0,22.3,10,22.3,22.3v530C476.9,669.4,466.9,679.4,454.6,679.4z"/>
					</g>
				</g>
			</g>
		</g>
	</g>
	<defs>
		<filter id="Adobe_OpacityMaskFilter" filterUnits="userSpaceOnUse" x="36.9" y="102.4" width="442.5" height="579.5">
			<feFlood  style="flood-color:white;flood-opacity:1" result="back"/>
			<feBlend  in="SourceGraphic" in2="back" mode="normal"/>
		</filter>
	</defs>
	<mask maskUnits="userSpaceOnUse" x="36.9" y="102.4" width="442.5" height="579.5" id="SVGID_9_">
		<g class="st10">
			<defs>
				<filter id="Adobe_OpacityMaskFilter_1_" filterUnits="userSpaceOnUse" x="36.9" y="102.4" width="442.5" height="579.5">
					<feFlood  style="flood-color:white;flood-opacity:1" result="back"/>
					<feBlend  in="SourceGraphic" in2="back" mode="normal"/>
				</filter>
			</defs>
			<mask maskUnits="userSpaceOnUse" x="36.9" y="102.4" width="442.5" height="579.5" id="SVGID_9_">
				<g class="st11">
				</g>
			</mask>
			<linearGradient id="SVGID_10_" gradientUnits="userSpaceOnUse" x1="93.6137" y1="724.0638" x2="590.0783" y2="227.5992">
				<stop  offset="0" style="stop-color:#000000"/>
				<stop  offset="0.3726" style="stop-color:#020202"/>
				<stop  offset="0.5069" style="stop-color:#090909"/>
				<stop  offset="0.6026" style="stop-color:#141414"/>
				<stop  offset="0.68" style="stop-color:#252525"/>
				<stop  offset="0.7463" style="stop-color:#3B3B3B"/>
				<stop  offset="0.805" style="stop-color:#575757"/>
				<stop  offset="0.8581" style="stop-color:#777777"/>
				<stop  offset="0.9069" style="stop-color:#9D9D9D"/>
				<stop  offset="0.9523" style="stop-color:#C8C8C8"/>
				<stop  offset="0.9926" style="stop-color:#F6F6F6"/>
				<stop  offset="1" style="stop-color:#FFFFFF"/>
			</linearGradient>
			<path class="st12" d="M454.6,102.4h-68.4L36.9,451.7v205.4c0,13.7,11.1,24.8,24.8,24.8h393c13.7,0,24.8-11.1,24.8-24.8V127.2
				C479.4,113.5,468.3,102.4,454.6,102.4z"/>
		</g>
	</mask>
	<linearGradient id="SVGID_11_" gradientUnits="userSpaceOnUse" x1="93.6137" y1="724.0638" x2="590.0783" y2="227.5992">
		<stop  offset="0" style="stop-color:#FFFFFF"/>
		<stop  offset="0.8587" style="stop-color:#FFFFFF"/>
		<stop  offset="1" style="stop-color:#FFFFFF"/>
	</linearGradient>
	<path class="st13" d="M454.6,102.4h-68.4L36.9,451.7v205.4c0,13.7,11.1,24.8,24.8,24.8h393c13.7,0,24.8-11.1,24.8-24.8V127.2
		C479.4,113.5,468.3,102.4,454.6,102.4z"/>
</g>
<image style="overflow:visible;" width="885" height="1158" xlink:href="C:\Users\WP\Downloads\Web capture_15-5-2022_16128_.jpeg"  transform="matrix(0.4519 0 0 0.4626 60.1933 122.0002)">
</image>
<g>
	<g>
		<g>
			<g>
				<g>
					<path class="st14" d="M532,406.6H400.5c-13.6,0-24.6,11-24.6,24.6v315.5c0,13.6,11,24.6,24.6,24.6H532
						c13.6,0,24.6-11,24.6-24.6V431.2C556.6,417.6,545.6,406.6,532,406.6z M555.9,744.4c0,2.6-0.4,5-1.2,7.3
						c-0.1,0.2-0.1,0.4-0.2,0.5c-0.1,0.2-0.1,0.4-0.2,0.5c0,0.1-0.1,0.3-0.2,0.4c-0.2,0.4-0.3,0.8-0.5,1.1c-0.1,0.2-0.2,0.3-0.2,0.5
						c-0.1,0.2-0.2,0.5-0.4,0.7c-0.1,0.2-0.2,0.3-0.2,0.5c-0.1,0.2-0.2,0.3-0.3,0.5c-0.3,0.4-0.5,0.9-0.8,1.3
						c-0.1,0.1-0.2,0.3-0.3,0.4c-0.1,0.2-0.2,0.3-0.3,0.4c-0.1,0.1-0.2,0.3-0.3,0.4c-0.1,0.1-0.2,0.3-0.3,0.4
						c-0.1,0.1-0.2,0.3-0.4,0.4c-0.2,0.3-0.5,0.6-0.7,0.8c-0.4,0.4-0.8,0.8-1.2,1.2c-0.1,0.1-0.2,0.2-0.4,0.3
						c-0.3,0.3-0.6,0.5-0.9,0.7c-0.1,0.1-0.3,0.2-0.4,0.3c-0.4,0.3-0.9,0.7-1.3,1c-0.2,0.1-0.3,0.2-0.5,0.3
						c-0.3,0.2-0.6,0.4-0.9,0.6c-0.2,0.1-0.3,0.2-0.5,0.3c-0.5,0.3-1,0.5-1.6,0.8c-0.1,0.1-0.3,0.1-0.4,0.2
						c-0.2,0.1-0.3,0.1-0.5,0.2c-0.2,0.1-0.3,0.1-0.5,0.2c-0.4,0.1-0.8,0.3-1.2,0.4c-0.1,0-0.3,0.1-0.4,0.1
						c-0.5,0.2-1.1,0.3-1.6,0.4c-0.2,0-0.4,0.1-0.6,0.1c-0.2,0-0.4,0.1-0.6,0.1c-0.4,0.1-0.7,0.1-1.1,0.2h0c-0.1,0-0.1,0-0.2,0
						c-0.1,0-0.1,0-0.2,0c0,0,0,0-0.1,0c0.3,0,0.7-0.1,1-0.1c0.2,0,0.3-0.1,0.5-0.1c0.2,0,0.3-0.1,0.5-0.1c0.5-0.1,1-0.2,1.5-0.4
						c0.2,0,0.3-0.1,0.5-0.1c0.3-0.1,0.6-0.2,0.9-0.3c0.5-0.2,0.9-0.4,1.4-0.5c0.2-0.1,0.3-0.1,0.4-0.2c0.1-0.1,0.3-0.1,0.4-0.2
						c0.3-0.1,0.6-0.3,0.9-0.5c0.3-0.2,0.6-0.3,0.8-0.5c0.3-0.2,0.5-0.3,0.7-0.5c0,0,0.1,0,0.1-0.1c0.4-0.3,0.8-0.6,1.2-0.9
						c0.1-0.1,0.3-0.2,0.4-0.3c0.4-0.3,0.7-0.6,1-0.9c0.8-0.8,1.6-1.6,2.3-2.5c0.1-0.1,0.2-0.3,0.3-0.4c1-1.3,1.9-2.8,2.6-4.4
						c0.1-0.2,0.2-0.5,0.3-0.8c0.5-1.2,0.9-2.5,1.1-3.8c0.1-0.3,0.1-0.5,0.1-0.8c0.2-1.1,0.2-2.2,0.2-3.3V431.2
						c0-11.1-8.5-20.4-19.3-21.5c-0.2,0-0.4,0-0.6-0.1c-0.2,0-0.4,0-0.6,0h0c-0.4,0-0.7,0-1.1,0H400.5c-0.4,0-0.7,0-1.1,0h0
						c-11.4,0.6-20.5,10-20.5,21.6v315.5c0,11.1,8.4,20.3,19.2,21.5c-0.1,0-0.3,0-0.4,0h0c-0.4,0-0.8-0.1-1.1-0.2
						c-2.3-0.4-4.4-1.1-6.4-2c-0.1-0.1-0.3-0.1-0.4-0.2c-0.4-0.2-0.7-0.4-1.1-0.6c-0.2-0.1-0.3-0.2-0.5-0.3c-0.8-0.5-1.5-1-2.3-1.6
						c-0.1-0.1-0.3-0.2-0.4-0.3c-0.4-0.3-0.8-0.6-1.1-1c-0.1-0.1-0.2-0.2-0.4-0.3c-0.1-0.1-0.3-0.3-0.4-0.4
						c-0.1-0.1-0.3-0.3-0.4-0.4c-0.1-0.1-0.2-0.2-0.3-0.3c-0.1-0.1-0.2-0.2-0.3-0.3c-0.6-0.7-1.2-1.4-1.7-2.1
						c-0.1-0.1-0.2-0.3-0.3-0.4c-0.3-0.4-0.6-0.8-0.8-1.3c-0.1-0.2-0.2-0.3-0.3-0.5c-0.7-1.2-1.2-2.4-1.7-3.7
						c-0.1-0.2-0.1-0.4-0.2-0.5c-0.3-0.9-0.5-1.8-0.7-2.7c0-0.2-0.1-0.4-0.1-0.6c-0.2-1.3-0.3-2.7-0.3-4V431.2c0-0.2,0-0.5,0-0.7
						c0-0.2,0-0.4,0-0.5c0-0.4,0-0.8,0.1-1.1c0-0.2,0-0.4,0.1-0.6c0-0.1,0-0.2,0-0.3c0-0.1,0-0.2,0.1-0.4c0-0.2,0.1-0.4,0.1-0.6
						c0.1-0.3,0.1-0.7,0.2-1c0-0.2,0.1-0.3,0.1-0.5c0.1-0.5,0.3-1,0.4-1.5c0.1-0.2,0.1-0.3,0.2-0.5c0.1-0.2,0.1-0.4,0.2-0.6
						c0.1-0.2,0.1-0.3,0.2-0.5c0.1-0.1,0.1-0.3,0.2-0.4c0.1-0.2,0.1-0.3,0.2-0.4c0.1-0.1,0.1-0.2,0.2-0.3c0.1-0.2,0.1-0.3,0.2-0.5
						c0.1-0.3,0.3-0.6,0.4-0.8c0.1-0.1,0.2-0.3,0.2-0.4c0.1-0.2,0.2-0.3,0.3-0.5c0.7-1.1,1.4-2.2,2.2-3.2c0.1-0.1,0.2-0.3,0.4-0.4
						c0.1-0.2,0.3-0.3,0.4-0.5c0.2-0.3,0.5-0.5,0.7-0.7c0.3-0.3,0.5-0.5,0.8-0.8c0.3-0.2,0.6-0.5,0.8-0.7c0.1-0.1,0.3-0.2,0.4-0.4
						c0.3-0.2,0.6-0.5,0.9-0.7c0.3-0.2,0.6-0.4,0.9-0.6c0.3-0.2,0.6-0.4,1-0.6c0.2-0.1,0.3-0.2,0.5-0.3c0.2-0.1,0.3-0.2,0.5-0.3
						c0.2-0.1,0.3-0.2,0.5-0.3c0.2-0.1,0.3-0.2,0.5-0.2c0.3-0.2,0.7-0.3,1-0.4c0.2-0.1,0.3-0.1,0.5-0.2c0,0,0,0,0,0
						c0.2-0.1,0.3-0.1,0.5-0.2c0.2-0.1,0.3-0.1,0.5-0.2c0.2-0.1,0.4-0.1,0.6-0.2c0.2-0.1,0.4-0.1,0.5-0.2c0.2-0.1,0.4-0.1,0.6-0.1
						c0.2,0,0.4-0.1,0.6-0.1c0.4-0.1,0.8-0.2,1.1-0.2c0.2,0,0.4-0.1,0.6-0.1c0.4-0.1,0.8-0.1,1.2-0.1c0.3,0,0.7-0.1,1-0.1
						c0.2,0,0.4,0,0.6,0c0.2,0,0.4,0,0.6,0H532c0.2,0,0.4,0,0.6,0c0.2,0,0.3,0,0.5,0c0.4,0,0.8,0,1.2,0.1h0c0.2,0,0.4,0,0.6,0.1
						c0.2,0,0.4,0.1,0.6,0.1c0.2,0,0.4,0.1,0.6,0.1c0.2,0,0.4,0.1,0.6,0.1c0,0,0,0,0,0c0.2,0,0.4,0.1,0.6,0.1c0.2,0,0.3,0.1,0.5,0.1
						c0,0,0.1,0,0.1,0c0.2,0,0.3,0.1,0.5,0.1c0.2,0.1,0.4,0.1,0.7,0.2c0.2,0,0.3,0.1,0.4,0.1c0.3,0.1,0.7,0.2,1,0.3
						c0.2,0.1,0.4,0.2,0.7,0.3c0.2,0.1,0.3,0.1,0.5,0.2c0.2,0.1,0.3,0.2,0.5,0.2c0.2,0.1,0.3,0.2,0.5,0.2c1.2,0.6,2.3,1.3,3.4,2.1
						c0.1,0.1,0.3,0.2,0.4,0.3c0.5,0.4,0.9,0.7,1.4,1.1c0.2,0.2,0.4,0.3,0.6,0.5c0.8,0.7,1.5,1.5,2.2,2.3c0.1,0.1,0.2,0.3,0.4,0.4
						c0.2,0.3,0.5,0.6,0.7,0.9c0.1,0.2,0.2,0.3,0.3,0.5c0.2,0.3,0.4,0.5,0.5,0.8c0.1,0.1,0.2,0.3,0.3,0.4c0.2,0.3,0.3,0.5,0.5,0.8
						c0.1,0.1,0.1,0.3,0.2,0.4c0.2,0.5,0.5,0.9,0.7,1.4c0.1,0.1,0.1,0.2,0.2,0.4c0.2,0.5,0.4,1,0.5,1.4c0.1,0.2,0.1,0.4,0.2,0.5
						c0.3,1,0.6,2.1,0.8,3.2c0,0.1,0,0.2,0.1,0.4c0,0.2,0.1,0.4,0.1,0.6c0,0.2,0,0.4,0.1,0.6c0,0.2,0,0.4,0.1,0.6
						c0,0.4,0,0.7,0.1,1.1c0,0.2,0,0.5,0,0.7V744.4z"/>
					<g>
						<linearGradient id="SVGID_12_" gradientUnits="userSpaceOnUse" x1="376.5703" y1="588.9236" x2="379.2186" y2="588.9236">
							<stop  offset="0" style="stop-color:#666666"/>
							<stop  offset="1" style="stop-color:#000000"/>
						</linearGradient>
						<path class="st15" d="M398.2,768.2c-0.2,0-0.4,0-0.6-0.1h0c-0.4,0-0.8-0.1-1.1-0.2c-2.3-0.4-4.4-1.1-6.4-2
							c-0.1-0.1-0.3-0.1-0.4-0.2c-0.4-0.2-0.7-0.4-1.1-0.6c-0.2-0.1-0.3-0.2-0.5-0.3c-0.8-0.5-1.5-1-2.3-1.6
							c-0.1-0.1-0.3-0.2-0.4-0.3c-0.4-0.3-0.8-0.6-1.1-1c-0.1-0.1-0.2-0.2-0.4-0.3c-0.1-0.1-0.3-0.3-0.4-0.4
							c-0.1-0.1-0.3-0.3-0.4-0.4c-0.1-0.1-0.2-0.2-0.3-0.3c-0.1-0.1-0.2-0.2-0.3-0.3c-0.6-0.7-1.2-1.4-1.7-2.1
							c-0.1-0.1-0.2-0.3-0.3-0.4c-0.3-0.4-0.6-0.8-0.8-1.3c-0.1-0.2-0.2-0.3-0.3-0.5c-0.7-1.2-1.2-2.4-1.7-3.7
							c-0.1-0.2-0.1-0.4-0.2-0.5c-0.3-0.9-0.5-1.8-0.7-2.7c0-0.2-0.1-0.4-0.1-0.6c-0.2-1.3-0.3-2.7-0.3-4V433.5
							c0-12.8,10.1-23.3,22.8-23.9c-11.4,0.6-20.5,10-20.5,21.6v315.5C378.9,757.9,387.3,767.1,398.2,768.2z"/>
						<linearGradient id="SVGID_13_" gradientUnits="userSpaceOnUse" x1="553.6859" y1="588.9419" x2="556.3111" y2="588.9419">
							<stop  offset="0" style="stop-color:#000000"/>
							<stop  offset="1" style="stop-color:#666666"/>
						</linearGradient>
						<path class="st16" d="M555.9,433.5v310.9c0,2.6-0.4,5-1.2,7.3c-0.1,0.2-0.1,0.4-0.2,0.5c-0.1,0.2-0.1,0.4-0.2,0.5
							c0,0.1-0.1,0.3-0.2,0.4c-0.2,0.4-0.3,0.8-0.5,1.1c-0.1,0.2-0.2,0.3-0.2,0.5c-0.1,0.2-0.2,0.5-0.4,0.7
							c-0.1,0.2-0.2,0.3-0.2,0.5c-0.1,0.2-0.2,0.3-0.3,0.5c-0.3,0.4-0.5,0.9-0.8,1.3c-0.1,0.1-0.2,0.3-0.3,0.4
							c-0.1,0.2-0.2,0.3-0.3,0.4c-0.1,0.2-0.2,0.3-0.3,0.4c-0.1,0.1-0.2,0.3-0.3,0.4c-0.1,0.1-0.2,0.3-0.4,0.4
							c-0.2,0.3-0.5,0.6-0.7,0.8c-0.4,0.4-0.8,0.8-1.2,1.2c-0.1,0.1-0.2,0.2-0.4,0.3c-0.3,0.3-0.6,0.5-0.9,0.7
							c-0.1,0.1-0.3,0.2-0.4,0.3c-0.4,0.3-0.9,0.7-1.3,1c-0.2,0.1-0.3,0.2-0.5,0.3c-0.3,0.2-0.6,0.4-0.9,0.6
							c-0.2,0.1-0.3,0.2-0.5,0.3c-0.5,0.3-1,0.5-1.6,0.8c-0.1,0.1-0.3,0.1-0.4,0.2c-0.2,0.1-0.3,0.1-0.5,0.2
							c-0.2,0.1-0.3,0.1-0.5,0.2c-0.4,0.1-0.8,0.3-1.2,0.4c-0.1,0-0.3,0.1-0.4,0.1c-0.5,0.2-1.1,0.3-1.6,0.4c-0.2,0-0.4,0.1-0.6,0.1
							c-0.2,0-0.4,0.1-0.6,0.1c-0.4,0.1-0.7,0.1-1.1,0.2h0c-0.2,0-0.4,0-0.6,0.1c10.8-1.1,19.3-10.4,19.3-21.5V431.2
							c0-11.3-8.8-20.7-19.9-21.6C546.1,410.5,555.9,420.9,555.9,433.5z"/>
						<linearGradient id="SVGID_14_" gradientUnits="userSpaceOnUse" x1="466.2416" y1="770.6208" x2="466.2416" y2="749.6526">
							<stop  offset="0" style="stop-color:#959595"/>
							<stop  offset="1" style="stop-color:#000000"/>
						</linearGradient>
						<path class="st17" d="M555.9,744.4v2.3c0,13.2-10.7,23.9-23.9,23.9H400.5c-13.2,0-23.9-10.7-23.9-23.9v-2.3
							c0,1.4,0.1,2.7,0.3,4c0,0.2,0.1,0.4,0.1,0.6c0.2,0.9,0.4,1.8,0.7,2.7c0.1,0.2,0.1,0.4,0.2,0.5c0.5,1.3,1,2.5,1.7,3.7
							c0.1,0.2,0.2,0.3,0.3,0.5c0.3,0.4,0.5,0.9,0.8,1.3c0.1,0.1,0.2,0.3,0.3,0.4c0.5,0.7,1.1,1.5,1.7,2.1c0.1,0.1,0.2,0.2,0.3,0.3
							c0.1,0.1,0.2,0.2,0.3,0.3c0.1,0.1,0.3,0.3,0.4,0.4c0.1,0.1,0.3,0.3,0.4,0.4c0.1,0.1,0.2,0.2,0.4,0.3c0.4,0.3,0.7,0.6,1.1,1
							c0.1,0.1,0.3,0.2,0.4,0.3c0.7,0.6,1.5,1.1,2.3,1.6c0.2,0.1,0.3,0.2,0.5,0.3c0.3,0.2,0.7,0.4,1.1,0.6c0.1,0.1,0.3,0.1,0.4,0.2
							c2,1,4.1,1.7,6.4,2c0.4,0.1,0.7,0.1,1.1,0.2h0c0.4,0,0.8,0.1,1.2,0.1c0.2,0,0.4,0,0.6,0c0.4,0,0.7,0,1.1,0H532
							c0.4,0,0.7,0,1.1,0c0.2,0,0.4,0,0.6,0c0.3,0,0.6-0.1,0.9-0.1c0.1,0,0.1,0,0.2,0h0c0.4,0,0.8-0.1,1.1-0.2
							c0.2,0,0.4-0.1,0.6-0.1c0.2,0,0.4-0.1,0.6-0.1c0.5-0.1,1.1-0.3,1.6-0.4c0.1,0,0.3-0.1,0.4-0.1c0.4-0.1,0.8-0.3,1.2-0.4
							c0.2-0.1,0.3-0.1,0.5-0.2c0.2-0.1,0.3-0.1,0.5-0.2c0.1-0.1,0.3-0.1,0.4-0.2c0.5-0.2,1.1-0.5,1.6-0.8c0.2-0.1,0.3-0.2,0.5-0.3
							c0.3-0.2,0.6-0.4,0.9-0.6c0.2-0.1,0.3-0.2,0.5-0.3c0.5-0.3,0.9-0.6,1.3-1c0.1-0.1,0.3-0.2,0.4-0.3c0.3-0.2,0.6-0.5,0.9-0.7
							c0.1-0.1,0.3-0.2,0.4-0.3c0.4-0.4,0.8-0.8,1.2-1.2c0.3-0.3,0.5-0.5,0.7-0.8c0.1-0.1,0.2-0.3,0.4-0.4c0.1-0.1,0.2-0.3,0.3-0.4
							c0.1-0.1,0.2-0.3,0.3-0.4c0.1-0.1,0.2-0.3,0.3-0.4c0.1-0.1,0.2-0.3,0.3-0.4c0.3-0.4,0.6-0.9,0.8-1.3c0.1-0.2,0.2-0.3,0.3-0.5
							c0.1-0.2,0.2-0.3,0.2-0.5c0.1-0.2,0.2-0.5,0.4-0.7c0.1-0.2,0.2-0.3,0.2-0.5c0.2-0.4,0.3-0.8,0.5-1.1c0.1-0.1,0.1-0.3,0.2-0.4
							c0.1-0.2,0.1-0.3,0.2-0.5c0.1-0.2,0.1-0.4,0.2-0.5C555.5,749.5,555.9,747,555.9,744.4z"/>
					</g>
					<linearGradient id="SVGID_15_" gradientUnits="userSpaceOnUse" x1="466.2416" y1="427.3328" x2="466.2416" y2="401.1525">
						<stop  offset="0" style="stop-color:#000000"/>
						<stop  offset="1" style="stop-color:#808080"/>
					</linearGradient>
					<path class="st18" d="M555.9,431.2v2.3c0-12.4-9.5-22.6-21.6-23.8c-0.2,0-0.4,0-0.6-0.1c-0.2,0-0.4,0-0.6,0h0
						c-0.4,0-0.7,0-1.1,0H400.5c-0.4,0-0.7,0-1.1,0h0c-12.7,0.6-22.8,11.1-22.8,23.9v-2.3c0-0.2,0-0.5,0-0.7c0-0.2,0-0.4,0-0.5
						c0-0.4,0-0.8,0.1-1.1c0-0.2,0-0.4,0.1-0.6c0-0.1,0-0.2,0-0.3c0-0.1,0-0.2,0.1-0.4c0-0.2,0.1-0.4,0.1-0.6c0.1-0.3,0.1-0.7,0.2-1
						c0-0.2,0.1-0.3,0.1-0.5c0.1-0.5,0.3-1,0.4-1.5c0.1-0.2,0.1-0.3,0.2-0.5c0.1-0.2,0.1-0.4,0.2-0.6c0.1-0.2,0.1-0.3,0.2-0.5
						c0.1-0.1,0.1-0.3,0.2-0.4c0.1-0.2,0.1-0.3,0.2-0.4c0.1-0.1,0.1-0.2,0.2-0.3c0.1-0.2,0.1-0.3,0.2-0.5c0.1-0.3,0.3-0.6,0.4-0.8
						c0.1-0.1,0.2-0.3,0.2-0.4c0.1-0.2,0.2-0.3,0.3-0.5c0.7-1.1,1.4-2.2,2.2-3.2c0.1-0.1,0.2-0.3,0.4-0.4c0.1-0.2,0.3-0.3,0.4-0.5
						c0.2-0.3,0.5-0.5,0.7-0.7c0.3-0.3,0.5-0.5,0.8-0.8c0.3-0.2,0.6-0.5,0.8-0.7c0.1-0.1,0.3-0.2,0.4-0.4c0.3-0.2,0.6-0.5,0.9-0.7
						c0.3-0.2,0.6-0.4,0.9-0.6c0.3-0.2,0.6-0.4,1-0.6c0.2-0.1,0.3-0.2,0.5-0.3c0.2-0.1,0.3-0.2,0.5-0.3c0.2-0.1,0.3-0.2,0.5-0.3
						c0.2-0.1,0.3-0.2,0.5-0.2c0.3-0.2,0.7-0.3,1-0.4c0.2-0.1,0.3-0.1,0.5-0.2c0,0,0,0,0,0c0.2-0.1,0.3-0.1,0.5-0.2
						c0.2-0.1,0.3-0.1,0.5-0.2c0.2-0.1,0.4-0.1,0.6-0.2c0.2-0.1,0.4-0.1,0.5-0.2c0.2-0.1,0.4-0.1,0.6-0.1c0.2,0,0.4-0.1,0.6-0.1
						c0.4-0.1,0.8-0.2,1.1-0.2c0.2,0,0.4-0.1,0.6-0.1c0.4-0.1,0.8-0.1,1.2-0.1c0.3,0,0.7-0.1,1-0.1c0.2,0,0.4,0,0.6,0
						c0.2,0,0.4,0,0.6,0H532c0.2,0,0.4,0,0.6,0c0.2,0,0.3,0,0.5,0c0.4,0,0.8,0,1.2,0.1h0c0.2,0,0.4,0,0.6,0.1c0.2,0,0.4,0.1,0.6,0.1
						c0.2,0,0.4,0.1,0.6,0.1c0.2,0,0.4,0.1,0.6,0.1c0,0,0,0,0,0c0.2,0,0.4,0.1,0.6,0.1c0.2,0,0.3,0.1,0.5,0.1c0,0,0.1,0,0.1,0
						c0.2,0,0.3,0.1,0.5,0.1c0.2,0.1,0.4,0.1,0.7,0.2c0.2,0,0.3,0.1,0.4,0.1c0.3,0.1,0.7,0.2,1,0.3c0.2,0.1,0.4,0.2,0.7,0.3
						c0.2,0.1,0.3,0.1,0.5,0.2c0.2,0.1,0.3,0.2,0.5,0.2c0.2,0.1,0.3,0.2,0.5,0.2c1.2,0.6,2.3,1.3,3.4,2.1c0.1,0.1,0.3,0.2,0.4,0.3
						c0.5,0.4,0.9,0.7,1.4,1.1c0.2,0.2,0.4,0.3,0.6,0.5c0.8,0.7,1.5,1.5,2.2,2.3c0.1,0.1,0.2,0.3,0.4,0.4c0.2,0.3,0.5,0.6,0.7,0.9
						c0.1,0.2,0.2,0.3,0.3,0.5c0.2,0.3,0.4,0.5,0.5,0.8c0.1,0.1,0.2,0.3,0.3,0.4c0.2,0.3,0.3,0.5,0.5,0.8c0.1,0.1,0.1,0.3,0.2,0.4
						c0.2,0.5,0.5,0.9,0.7,1.4c0.1,0.1,0.1,0.2,0.2,0.4c0.2,0.5,0.4,1,0.5,1.4c0.1,0.2,0.1,0.4,0.2,0.5c0.3,1,0.6,2.1,0.8,3.2
						c0,0.1,0,0.2,0.1,0.4c0,0.2,0.1,0.4,0.1,0.6c0,0.2,0,0.4,0.1,0.6c0,0.2,0,0.4,0.1,0.6c0,0.4,0,0.7,0.1,1.1
						C555.9,430.7,555.9,431,555.9,431.2z"/>
				</g>
				<g>
					<path d="M533.1,409.6L533.1,409.6c-0.4,0-0.7,0-1.1,0H400.5c-0.4,0-0.7,0-1.1,0h0c-11.4,0.6-20.5,10-20.5,21.6v315.5
						c0,11.3,8.8,20.7,19.9,21.6c0.2,0,0.4,0,0.6,0c0.4,0,0.7,0,1.1,0H532c0.4,0,0.7,0,1.1,0c0.2,0,0.4,0,0.6,0
						c11.1-0.9,19.9-10.2,19.9-21.6V431.2C553.6,419.7,544.5,410.2,533.1,409.6z M551.8,746.7c0,10.3-8,18.9-18.2,19.7
						c-0.2,0-0.4,0-0.6,0c-0.3,0-0.7,0-1,0H400.5c-0.3,0-0.7,0-1,0c-0.2,0-0.4,0-0.5,0c-10.2-0.8-18.2-9.5-18.2-19.7V431.2
						c0-10.5,8.2-19.2,18.7-19.8h0l0,0c0.3,0,0.7,0,1,0H532c0.3,0,0.7,0,1,0l0,0c10.5,0.6,18.7,9.2,18.7,19.8V746.7z"/>
				</g>
				<linearGradient id="SVGID_16_" gradientUnits="userSpaceOnUse" x1="545.4261" y1="589.0605" x2="551.8012" y2="589.0605">
					<stop  offset="0" style="stop-color:#F0F0F0"/>
					<stop  offset="5.645210e-03" style="stop-color:#EDEDED"/>
					<stop  offset="0.142" style="stop-color:#B4B4B4"/>
					<stop  offset="0.2742" style="stop-color:#858585"/>
					<stop  offset="0.399" style="stop-color:#606060"/>
					<stop  offset="0.5146" style="stop-color:#464646"/>
					<stop  offset="0.6177" style="stop-color:#363636"/>
					<stop  offset="0.6978" style="stop-color:#303030"/>
				</linearGradient>
				<path class="st19" d="M551.8,431.3v315.5c0,2-0.3,3.9-0.8,5.6c-0.4,1.4-1,2.8-1.8,4.1c-0.2,0.3-0.3,0.5-0.5,0.8
					c-0.2,0.4-0.5,0.8-0.8,1.1c-0.8,1-1.6,2-2.5,2.9c1.7-3,2.7-6.5,2.7-10.2v-3.6c0-0.2,0-0.4,0-0.7V431.3c0-0.2,0-0.4,0-0.7v-3.6
					c0-3.8-1-7.3-2.7-10.3C549.4,420.4,551.8,425.6,551.8,431.3z"/>
				<g>
					<path d="M533,413.3L533,413.3c-0.4,0-0.7,0-1,0H400.5c-0.3,0-0.6,0-0.9,0l-0.1,0h0c-9.5,0.5-16.9,8.4-16.9,17.9v315.5
						c0,9.3,7.3,17.2,16.5,17.9c0.1,0,0.3,0,0.4,0l0.1,0c0.3,0,0.6,0,0.9,0H532c0.3,0,0.6,0,0.9,0l0.1,0c0.2,0,0.3,0,0.5,0
						c9.3-0.7,16.5-8.6,16.5-17.9V431.2C550,421.7,542.5,413.8,533,413.3z M545.2,746.7c0,6.8-5.3,12.6-12.1,13.1
						c-0.1,0-0.1,0-0.2,0l0,0l0,0l-0.1,0l0,0l0,0c-0.2,0-0.4,0-0.7,0H400.5c-0.2,0-0.5,0-0.7,0l0,0l0,0l-0.1,0l0,0l0,0
						c-0.1,0-0.1,0-0.2,0c-6.8-0.5-12.1-6.3-12.1-13.1V431.2c0-6.9,5.4-12.7,12.3-13.1h0.1l0.2,0c0.2,0,0.4,0,0.6,0H532
						c0.2,0,0.4,0,0.6,0l0,0l0.1,0c7,0.4,12.5,6.1,12.5,13.2V746.7z"/>
					<path d="M511,418v1.7c0,5.8-4.7,10.5-10.5,10.5H432c-5.8,0-10.5-4.7-10.5-10.5V418H511z"/>
				</g>
				<path d="M511,418v1.7c0,5.8-4.7,10.5-10.5,10.5H432c-5.8,0-10.5-4.7-10.5-10.5V418H511z"/>
				<g>
					<linearGradient id="SVGID_17_" gradientUnits="userSpaceOnUse" x1="384.3373" y1="756.7138" x2="548.1505" y2="756.7138">
						<stop  offset="0" style="stop-color:#131313"/>
						<stop  offset="1.664141e-02" style="stop-color:#1A1A1A"/>
						<stop  offset="0.1304" style="stop-color:#454545"/>
						<stop  offset="0.2407" style="stop-color:#666666"/>
						<stop  offset="0.3454" style="stop-color:#7E7E7E"/>
						<stop  offset="0.442" style="stop-color:#8D8D8D"/>
						<stop  offset="0.5229" style="stop-color:#929292"/>
						<stop  offset="0.5899" style="stop-color:#8B8B8B"/>
						<stop  offset="0.6907" style="stop-color:#767676"/>
						<stop  offset="0.813" style="stop-color:#545454"/>
						<stop  offset="0.9509" style="stop-color:#252525"/>
						<stop  offset="1" style="stop-color:#131313"/>
					</linearGradient>
					<path class="st20" d="M548.2,747.5v3.6c0,3.7-1,7.2-2.7,10.2c-3.2,2.9-7.3,4.9-11.8,5.2c-0.2,0-0.4,0-0.6,0c-0.3,0-0.7,0-1,0
						H400.5c-0.3,0-0.7,0-1,0c-0.2,0-0.4,0-0.5,0c-0.3,0-0.5,0-0.8-0.1c-4.3-0.5-8.1-2.4-11.1-5.1c-1.7-3-2.7-6.5-2.7-10.3v-4.3
						c0,4.9,2.2,9.3,5.7,12.3c2.5,2.2,5.7,3.6,9.2,3.8c0.1,0,0.2,0,0.3,0l0.1,0h0.1c0.3,0,0.6,0,0.8,0H532c0.3,0,0.6,0,0.8,0h0.1
						l0.1,0c0.1,0,0.3,0,0.4,0C541.4,762.3,547.8,755.6,548.2,747.5z"/>
					<linearGradient id="SVGID_18_" gradientUnits="userSpaceOnUse" x1="384.3373" y1="421.4278" x2="551.8149" y2="421.4278">
						<stop  offset="0" style="stop-color:#131313"/>
						<stop  offset="1.664141e-02" style="stop-color:#1A1A1A"/>
						<stop  offset="0.1304" style="stop-color:#454545"/>
						<stop  offset="0.2407" style="stop-color:#666666"/>
						<stop  offset="0.3454" style="stop-color:#7E7E7E"/>
						<stop  offset="0.442" style="stop-color:#8D8D8D"/>
						<stop  offset="0.5229" style="stop-color:#929292"/>
						<stop  offset="0.5899" style="stop-color:#8B8B8B"/>
						<stop  offset="0.6907" style="stop-color:#767676"/>
						<stop  offset="0.813" style="stop-color:#545454"/>
						<stop  offset="0.9509" style="stop-color:#252525"/>
						<stop  offset="1" style="stop-color:#131313"/>
					</linearGradient>
					<path class="st21" d="M551.8,431.3L551.8,431.3c0-10.6-8.2-19.2-18.7-19.8l0,0c-0.3,0-0.7,0-1,0H400.5c-0.3,0-0.7,0-1,0l0,0h0
						c-0.4,0-0.8,0.1-1.3,0.1c-4.3,0.5-8.1,2.4-11.1,5.1c-1.7,3-2.7,6.5-2.7,10.3v4.3c0-4.9,2.2-9.3,5.7-12.3
						c2.6-2.2,5.9-3.6,9.5-3.8h0.1l0.1,0c0.3,0,0.5,0,0.8,0H532c0.2,0,0.4,0,0.7,0h0l0.2,0c8.3,0.4,14.9,7.2,15.3,15.5v-3.6
						c0-3.8-1-7.3-2.7-10.3C549.4,420.4,551.8,425.6,551.8,431.3z"/>
					<linearGradient id="SVGID_19_" gradientUnits="userSpaceOnUse" x1="380.6774" y1="588.951" x2="384.4597" y2="588.951">
						<stop  offset="0" style="stop-color:#C8C8C8"/>
						<stop  offset="0.2305" style="stop-color:#9B9B9B"/>
						<stop  offset="0.597" style="stop-color:#585858"/>
						<stop  offset="0.8634" style="stop-color:#2F2F2F"/>
						<stop  offset="1" style="stop-color:#1F1F1F"/>
					</linearGradient>
					<path class="st22" d="M387.1,761.2c-3.9-3.6-6.4-8.8-6.4-14.5V431.2c0-5.7,2.4-10.9,6.4-14.6c-1.7,3-2.7,6.5-2.7,10.3v324
						C384.3,754.7,385.3,758.2,387.1,761.2z"/>
					<linearGradient id="SVGID_20_" gradientUnits="userSpaceOnUse" x1="545.4078" y1="589.0788" x2="551.8012" y2="589.0788">
						<stop  offset="0" style="stop-color:#1F1F1F"/>
						<stop  offset="0.1366" style="stop-color:#2F2F2F"/>
						<stop  offset="0.403" style="stop-color:#585858"/>
						<stop  offset="0.7695" style="stop-color:#9B9B9B"/>
						<stop  offset="1" style="stop-color:#C8C8C8"/>
					</linearGradient>
					<path class="st23" d="M551.8,431.3v315.5c0,2-0.3,3.9-0.8,5.6c-0.4,1.4-1,2.8-1.8,4.1c-0.2,0.3-0.3,0.5-0.5,0.8
						c-0.2,0.4-0.5,0.8-0.8,1.1c-0.8,1-1.6,2-2.6,2.9c0,0,0,0,0,0c1.7-3,2.7-6.5,2.7-10.2v-324c0-3.8-1-7.3-2.7-10.3
						C549.4,420.4,551.8,425.6,551.8,431.3z"/>
				</g>
			</g>
			<g>
				<linearGradient id="SVGID_21_" gradientUnits="userSpaceOnUse" x1="455.1935" y1="420.5572" x2="476.1853" y2="420.5572">
					<stop  offset="0" style="stop-color:#303030"/>
					<stop  offset="0.1189" style="stop-color:#242424"/>
					<stop  offset="0.3026" style="stop-color:#171717"/>
					<stop  offset="0.4787" style="stop-color:#131313"/>
					<stop  offset="0.7794" style="stop-color:#151515"/>
					<stop  offset="0.8876" style="stop-color:#1C1C1C"/>
					<stop  offset="0.9645" style="stop-color:#272727"/>
					<stop  offset="1" style="stop-color:#303030"/>
				</linearGradient>
				<path class="st24" d="M475.9,421.7h-20.4c-0.2,0-0.3-0.1-0.3-0.3v-1.6c0-0.2,0.1-0.3,0.3-0.3h20.4c0.2,0,0.3,0.1,0.3,0.3v1.6
					C476.2,421.5,476.1,421.7,475.9,421.7z"/>
			</g>
		</g>
		<g>
			<defs>
				<path id="SVGID_22_" d="M532.9,418.1h-0.1l-0.2,0c-0.2,0-0.4,0-0.6,0h-19c-1.1,0.1-2,0.9-2.1,2c0,0.1,0,0.1,0,0.2v0
					c-0.3,5.6-4.9,10-10.5,10h-32.4h-3.7H432c-5.6,0-10.2-4.4-10.5-10v0c0-0.1,0-0.2,0-0.2c-0.1-1.1-1-1.9-2.1-2h-19
					c-0.2,0-0.4,0-0.6,0l-0.2,0h-0.1c-6.9,0.5-12.3,6.2-12.3,13.1v315.5c0,6.8,5.3,12.6,12.1,13.1c0.1,0,0.1,0,0.2,0h0l0,0h0.1l0,0
					c0.2,0,0.5,0,0.7,0h63.9h3.7H532c0.2,0,0.5,0,0.7,0l0,0h0.1l0,0h0c0.1,0,0.1,0,0.2,0c6.8-0.5,12.1-6.3,12.1-13.1V431.2
					C545.2,424.3,539.8,418.5,532.9,418.1z"/>
			</defs>
			<clipPath id="SVGID_23_">
				<use xlink:href="#SVGID_22_"  style="overflow:visible;"/>
			</clipPath>
		</g>
		<g>
			<defs>
				<path id="SVGID_24_" d="M532.9,418h-0.1l-0.2,0c-0.2,0-0.4,0-0.6,0h-19c-1.1,0.1-2,0.9-2.1,2c0,0.1,0,0.1,0,0.2v0
					c-0.3,5.6-4.9,10-10.5,10h-32.4h-3.7H432c-5.6,0-10.2-4.4-10.5-10v0c0-0.1,0-0.2,0-0.2c-0.1-1.1-1-1.9-2.1-2h-19
					c-0.2,0-0.4,0-0.6,0l-0.2,0h-0.1c-6.9,0.5-12.3,6.2-12.3,13.1v315.5c0,6.8,5.3,12.6,12.1,13.1c0.1,0,0.1,0,0.2,0h0l0,0h0.1l0,0
					c0.2,0,0.5,0,0.7,0h63.9h3.7H532c0.2,0,0.5,0,0.7,0l0,0h0.1l0,0h0c0.1,0,0.1,0,0.2,0c6.8-0.5,12.1-6.3,12.1-13.1V431.2
					C545.2,424.2,539.8,418.5,532.9,418z"/>
			</defs>
			<linearGradient id="SVGID_25_" gradientUnits="userSpaceOnUse" x1="345.1576" y1="467.8591" x2="587.3154" y2="710.0168">
				<stop  offset="0" style="stop-color:#F1F2F3"/>
				<stop  offset="0.363" style="stop-color:#ECEDEE"/>
				<stop  offset="0.7982" style="stop-color:#DEDFDF"/>
				<stop  offset="1" style="stop-color:#D5D6D6"/>
			</linearGradient>
			<use xlink:href="#SVGID_24_"  style="overflow:visible;fill:url(#SVGID_25_);"/>
			<clipPath id="SVGID_26_">
				<use xlink:href="#SVGID_24_"  style="overflow:visible;"/>
			</clipPath>
		</g>
	</g>
	<defs>
		<filter id="Adobe_OpacityMaskFilter_2_" filterUnits="userSpaceOnUse" x="375.8" y="406.6" width="182.1" height="364.7">
			<feFlood  style="flood-color:white;flood-opacity:1" result="back"/>
			<feBlend  in="SourceGraphic" in2="back" mode="normal"/>
		</filter>
	</defs>
	<mask maskUnits="userSpaceOnUse" x="375.8" y="406.6" width="182.1" height="364.7" id="SVGID_27_">
		<g class="st25">
			<defs>
				<filter id="Adobe_OpacityMaskFilter_3_" filterUnits="userSpaceOnUse" x="375.8" y="406.6" width="182.1" height="364.7">
					<feFlood  style="flood-color:white;flood-opacity:1" result="back"/>
					<feBlend  in="SourceGraphic" in2="back" mode="normal"/>
				</filter>
			</defs>
			<mask maskUnits="userSpaceOnUse" x="375.8" y="406.6" width="182.1" height="364.7" id="SVGID_27_">
				<g class="st26">
				</g>
			</mask>
			<linearGradient id="SVGID_28_" gradientUnits="userSpaceOnUse" x1="373.0752" y1="754.1474" x2="631.4467" y2="495.776">
				<stop  offset="0.3633" style="stop-color:#000000"/>
				<stop  offset="0.5449" style="stop-color:#020202"/>
				<stop  offset="0.6326" style="stop-color:#0A0A0A"/>
				<stop  offset="0.7001" style="stop-color:#171717"/>
				<stop  offset="0.7573" style="stop-color:#292929"/>
				<stop  offset="0.808" style="stop-color:#414141"/>
				<stop  offset="0.8541" style="stop-color:#5F5F5F"/>
				<stop  offset="0.8967" style="stop-color:#828282"/>
				<stop  offset="0.9367" style="stop-color:#ABABAB"/>
				<stop  offset="0.973" style="stop-color:#D8D8D8"/>
				<stop  offset="1" style="stop-color:#FFFFFF"/>
			</linearGradient>
			<path class="st27" d="M557.7,491c-0.1-0.1-0.3-0.2-0.5-0.2c-0.4,0-0.7,0.3-0.7,0.7v-60.4c0-12.8-9.8-23.3-22.3-24.5L375.8,565.1
				v181.6c0,13.6,11,24.6,24.6,24.6H532c13.6,0,24.6-11,24.6-24.6V532c0,0.4,0.3,0.7,0.7,0.7c0.2,0,0.3-0.1,0.5-0.2
				c0.1-0.1,0.2-0.3,0.2-0.5v-40.5C558,491.3,557.9,491.1,557.7,491z M379.2,750.8L379.2,750.8C379.2,750.8,379.2,750.8,379.2,750.8
				C379.2,750.8,379.2,750.8,379.2,750.8z M379.5,752.3L379.5,752.3C379.5,752.3,379.5,752.3,379.5,752.3
				C379.5,752.3,379.5,752.3,379.5,752.3z M382.9,759.4C382.9,759.4,382.9,759.4,382.9,759.4c0.1,0.1,0.1,0.2,0.2,0.2
				C383,759.5,383,759.5,382.9,759.4z M394.8,767.6c0.2,0,0.3,0.1,0.5,0.1c0.1,0,0.1,0,0.2,0.1C395.3,767.7,395.1,767.7,394.8,767.6
				z M396.8,768L396.8,768c0.2,0,0.4,0.1,0.6,0.1c0.1,0,0.1,0,0.2,0C397.3,768.1,397,768.1,396.8,768z M534.6,768.2
				C534.6,768.2,534.6,768.2,534.6,768.2c0.1,0,0.2,0,0.2,0C534.8,768.2,534.7,768.2,534.6,768.2z M549.7,418.7
				C549.7,418.7,549.7,418.6,549.7,418.7c0,0,0,0.1,0.1,0.1C549.7,418.8,549.7,418.7,549.7,418.7z"/>
		</g>
	</mask>
	<linearGradient id="SVGID_29_" gradientUnits="userSpaceOnUse" x1="373.0752" y1="754.1474" x2="631.4467" y2="495.776">
		<stop  offset="0.3633" style="stop-color:#FFFFFF"/>
		<stop  offset="0.9064" style="stop-color:#FFFFFF"/>
		<stop  offset="1" style="stop-color:#FFFFFF"/>
	</linearGradient>
	<path class="st28" d="M557.7,491c-0.1-0.1-0.3-0.2-0.5-0.2c-0.4,0-0.7,0.3-0.7,0.7v-60.4c0-12.8-9.8-23.3-22.3-24.5L375.8,565.1
		v181.6c0,13.6,11,24.6,24.6,24.6H532c13.6,0,24.6-11,24.6-24.6V532c0,0.4,0.3,0.7,0.7,0.7c0.2,0,0.3-0.1,0.5-0.2
		c0.1-0.1,0.2-0.3,0.2-0.5v-40.5C558,491.3,557.9,491.1,557.7,491z M379.2,750.8L379.2,750.8C379.2,750.8,379.2,750.8,379.2,750.8
		C379.2,750.8,379.2,750.8,379.2,750.8z M379.5,752.3L379.5,752.3C379.5,752.3,379.5,752.3,379.5,752.3
		C379.5,752.3,379.5,752.3,379.5,752.3z M382.9,759.4C382.9,759.4,382.9,759.4,382.9,759.4c0.1,0.1,0.1,0.2,0.2,0.2
		C383,759.5,383,759.5,382.9,759.4z M394.8,767.6c0.2,0,0.3,0.1,0.5,0.1c0.1,0,0.1,0,0.2,0.1C395.3,767.7,395.1,767.7,394.8,767.6z
		 M396.8,768L396.8,768c0.2,0,0.4,0.1,0.6,0.1c0.1,0,0.1,0,0.2,0C397.3,768.1,397,768.1,396.8,768z M534.6,768.2
		C534.6,768.2,534.6,768.2,534.6,768.2c0.1,0,0.2,0,0.2,0C534.8,768.2,534.7,768.2,534.6,768.2z M549.7,418.7
		C549.7,418.7,549.7,418.6,549.7,418.7c0,0,0,0.1,0.1,0.1C549.7,418.8,549.7,418.7,549.7,418.7z"/>
</g>
<g>
	
		<image style="overflow:visible;" width="458" height="1024" xlink:href="C:\Users\WP\Downloads\Web capture_15-5-2022_154127_.jpeg"  transform="matrix(0.3429 0 0 0.3131 387.9606 430.2444)">
	</image>
</g>
</svg>
